<svg id="add_to_cart_plus_white_shade" xmlns="http://www.w3.org/2000/svg" width="18" height="18" viewBox="0 0 18 18">
  <g id="Plus">
    <path id="Path_34200" d="M13.2,0H4.8C1.736,0,0,1.736,0,4.8v8.4C0,16.256,1.728,18,4.8,18h8.4c3.064,0,4.8-1.744,4.8-4.8V4.8C18,1.736,16.264,0,13.2,0Z" fill="#f0f5f9"/>
    <path id="Path_34201" d="M6.588,4.238H4.275V6.531a.675.675,0,0,1-1.349,0V4.238H.612a.675.675,0,0,1,0-1.345H2.918V.606a.682.682,0,0,1,1.356,0V2.893H6.588a.675.675,0,0,1,0,1.345Z" transform="translate(5.4 5.4)" fill="#0f0f0f"/>
  </g>
</svg>
