<svg id="add_to_cart_black" xmlns="http://www.w3.org/2000/svg" width="10.684" height="10.4" viewBox="0 0 10.684 10.4">
  <g id="Buy" transform="translate(0)">
    <path id="Combined_Shape" data-name="Combined Shape" d="M6.005.807a.809.809,0,1,1,.811.8A.808.808,0,0,1,6.005.807ZM0,.807a.809.809,0,1,1,.811.8A.808.808,0,0,1,0,.807Z" transform="translate(2.087 8.792)" fill="#515354"/>
    <path id="Fill_7" data-name="Fill 7" d="M8.808,7.953H2.984A1.357,1.357,0,0,1,1.629,6.712L1.137.928.331.79A.4.4,0,0,1,.075.627.387.387,0,0,1,.006.333.406.406,0,0,1,.41,0,.426.426,0,0,1,.47,0L1.743.2a.4.4,0,0,1,.331.361l.1,1.189a.326.326,0,0,0,.325.3H9.71a.913.913,0,0,1,.753.355,1.146,1.146,0,0,1,.2.912l-.507,3.481A1.367,1.367,0,0,1,8.808,7.953ZM6.476,4.005a.4.4,0,0,0-.4.4.4.4,0,0,0,.4.4H7.954a.4.4,0,0,0,.4-.4.4.4,0,0,0-.4-.4Z" transform="translate(0)" fill="#000000"/>
  </g>
</svg>
