<svg xmlns="http://www.w3.org/2000/svg" width="19.002" height="21" viewBox="0 0 19.002 21">
  <path id="Bag" d="M4.869,20C2.99,20,1.695,19.562.911,18.662.092,17.72-.171,16.3.106,14.315L.884,8.121C1.226,6.167,2.366,5,3.933,5h.078a.635.635,0,0,1,0-.226,5,5,0,0,1,9.99,0h-.026A.5.5,0,0,1,13.931,5h.157a2.669,2.669,0,0,1,1.827.731,4.382,4.382,0,0,1,1.23,2.389l.77,6.195a5.131,5.131,0,0,1-.905,4.229A4.916,4.916,0,0,1,13.16,20ZM11,9.239a.884.884,0,1,0,.884-.91A.9.9,0,0,0,11,9.239Zm-5.789,0A.884.884,0,1,0,6.1,8.33.9.9,0,0,0,5.214,9.239ZM12.495,5a.65.65,0,0,1-.044-.226,3.484,3.484,0,0,0-6.968,0,.635.635,0,0,1,0,.226Z" transform="translate(0.498 0.5)" stroke="rgba(0,0,0,0)" stroke-width="1"/>
</svg>
