<svg xmlns="http://www.w3.org/2000/svg" width="20" height="20" viewBox="0 0 20 20">
  <g id="category_light_active" transform="translate(-378 -108)">
    <path id="Fill_1" data-name="Fill 1" d="M2.539,0H5.924A2.549,2.549,0,0,1,8.463,2.56V5.975a2.549,2.549,0,0,1-2.539,2.56H2.539A2.549,2.549,0,0,1,0,5.975V2.56A2.549,2.549,0,0,1,2.539,0" transform="translate(389.537 108)" fill="#FFCAC7"/>
    <path id="Fill_4" data-name="Fill 4" d="M2.539,0H5.924A2.549,2.549,0,0,1,8.463,2.56V5.975a2.549,2.549,0,0,1-2.539,2.56H2.539A2.549,2.549,0,0,1,0,5.975V2.56A2.549,2.549,0,0,1,2.539,0" transform="translate(378 108)" fill="#FF6F67"/>
    <path id="Fill_7" data-name="Fill 7" d="M2.539,0H5.924A2.549,2.549,0,0,1,8.463,2.56V5.975a2.55,2.55,0,0,1-2.539,2.56H2.539A2.55,2.55,0,0,1,0,5.975V2.56A2.549,2.549,0,0,1,2.539,0" transform="translate(378 119.465)" fill="#FF6F67"/>
    <path id="Fill_10" data-name="Fill 10" d="M2.539,0H5.924A2.549,2.549,0,0,1,8.463,2.56V5.975a2.55,2.55,0,0,1-2.539,2.56H2.539A2.55,2.55,0,0,1,0,5.975V2.56A2.549,2.549,0,0,1,2.539,0" transform="translate(389.537 119.465)" fill="#FF6F67"/>
  </g>
</svg>
