<svg id="svg" xmlns="http://www.w3.org/2000/svg" xmlns:xlink="http://www.w3.org/1999/xlink" width="400" height="400" viewBox="0, 0, 400,400" version="1.1"><g id="svgg"><path id="path0" d="M263.915 15.928 C 263.538 16.078,265.376 16.200,268.000 16.200 C 270.624 16.200,272.462 16.078,272.085 15.928 C 271.195 15.575,264.805 15.575,263.915 15.928 M258.800 17.696 C 256.409 18.864,250.879 24.281,189.900 85.178 L 123.600 151.390 123.689 163.595 L 123.777 175.800 123.989 163.554 L 124.200 151.308 189.600 85.926 C 225.570 49.965,255.750 20.047,256.667 19.440 C 257.583 18.834,259.383 17.906,260.667 17.378 C 261.950 16.851,262.640 16.421,262.200 16.422 C 261.760 16.424,260.230 16.997,258.800 17.696 M275.333 17.378 C 276.617 17.906,278.417 18.833,279.333 19.439 C 281.065 20.583,302.800 42.138,302.800 42.711 C 302.800 42.891,302.174 44.199,301.409 45.619 C 300.644 47.038,300.019 48.380,300.020 48.600 C 300.020 48.820,300.736 47.652,301.611 46.005 C 302.485 44.358,303.200 42.816,303.200 42.578 C 303.200 42.341,297.935 36.938,291.500 30.572 C 279.618 18.816,276.553 16.373,273.734 16.409 C 273.330 16.415,274.050 16.851,275.333 17.378 M298.600 52.000 C 298.450 52.473,298.417 52.950,298.527 53.060 C 298.637 53.170,298.850 52.873,299.000 52.400 C 299.150 51.927,299.183 51.450,299.073 51.340 C 298.963 51.230,298.750 51.527,298.600 52.000 M297.778 54.978 C 297.627 55.781,297.594 56.527,297.704 56.637 C 297.814 56.747,298.027 56.181,298.178 55.378 C 298.328 54.575,298.362 53.828,298.252 53.718 C 298.142 53.608,297.928 54.175,297.778 54.978 M297.052 58.500 C 296.736 59.681,296.805 68.735,297.140 69.924 C 297.283 70.432,297.400 67.867,297.400 64.224 C 297.400 60.581,297.376 57.600,297.347 57.600 C 297.317 57.600,297.185 58.005,297.052 58.500 M297.668 72.400 C 297.662 72.950,297.811 73.760,298.000 74.200 L 298.344 75.000 298.332 74.200 C 298.326 73.760,298.176 72.950,298.000 72.400 L 297.680 71.400 297.668 72.400 M298.412 75.600 C 298.412 75.930,298.587 76.470,298.800 76.800 C 299.145 77.333,299.188 77.333,299.188 76.800 C 299.188 76.470,299.013 75.930,298.800 75.600 C 298.455 75.067,298.412 75.067,298.412 75.600 M300.007 79.711 C 299.978 80.949,304.056 87.312,306.961 90.562 C 308.950 92.787,307.984 91.175,305.695 88.449 C 304.428 86.939,303.123 85.190,302.795 84.562 C 301.166 81.437,300.014 79.432,300.007 79.711 M308.400 91.802 C 308.400 92.895,319.195 100.539,319.834 99.899 C 319.943 99.790,319.080 99.204,317.916 98.597 C 315.083 97.120,313.010 95.671,310.493 93.408 C 309.342 92.373,308.400 91.650,308.400 91.802 M356.631 97.149 C 356.513 97.341,355.411 97.990,354.183 98.591 C 352.955 99.192,352.042 99.775,352.154 99.888 C 352.267 100.000,353.530 99.437,354.962 98.636 L 357.565 97.180 368.516 108.090 C 374.538 114.091,379.970 119.765,380.586 120.700 C 381.919 122.723,382.278 122.908,381.361 121.100 C 380.592 119.584,358.069 96.800,357.339 96.800 C 357.069 96.800,356.750 96.957,356.631 97.149 M322.800 101.200 C 323.130 101.413,323.670 101.588,324.000 101.588 C 324.533 101.588,324.533 101.545,324.000 101.200 C 323.670 100.987,323.130 100.812,322.800 100.812 C 322.267 100.812,322.267 100.855,322.800 101.200 M348.000 101.200 C 347.467 101.545,347.467 101.588,348.000 101.588 C 348.330 101.588,348.870 101.413,349.200 101.200 C 349.733 100.855,349.733 100.812,349.200 100.812 C 348.870 100.812,348.330 100.987,348.000 101.200 M325.400 102.000 C 325.840 102.189,326.560 102.344,327.000 102.344 L 327.800 102.344 327.000 102.000 C 326.560 101.811,325.840 101.656,325.400 101.656 L 324.600 101.656 325.400 102.000 M345.200 102.000 C 344.396 102.257,344.357 102.323,345.000 102.332 C 345.440 102.338,346.160 102.189,346.600 102.000 C 347.619 101.562,346.568 101.562,345.200 102.000 M234.400 102.800 C 233.605 103.314,234.604 103.314,235.800 102.800 L 236.600 102.456 235.800 102.434 C 235.360 102.422,234.730 102.587,234.400 102.800 M238.600 102.800 C 239.796 103.314,240.795 103.314,240.000 102.800 C 239.670 102.587,239.040 102.422,238.600 102.434 L 237.800 102.456 238.600 102.800 M328.800 102.800 C 329.350 102.976,330.520 103.117,331.400 103.114 L 333.000 103.108 331.400 102.777 C 330.520 102.595,329.350 102.454,328.800 102.463 L 327.800 102.480 328.800 102.800 M340.800 102.800 L 339.400 103.095 340.800 103.107 C 341.570 103.115,342.650 102.976,343.200 102.800 L 344.200 102.480 343.200 102.493 C 342.650 102.500,341.570 102.638,340.800 102.800 M231.331 105.007 C 230.318 106.065,229.606 107.184,229.616 107.707 C 229.628 108.433,229.742 108.345,230.220 107.243 C 230.544 106.496,231.450 105.281,232.233 104.543 C 233.016 103.804,233.523 103.200,233.360 103.200 C 233.197 103.200,232.284 104.013,231.331 105.007 M242.285 104.647 C 243.919 106.204,244.384 107.356,246.459 115.000 C 246.697 115.880,247.037 117.050,247.214 117.600 C 247.390 118.150,247.648 119.116,247.787 119.747 C 247.926 120.378,248.137 120.796,248.257 120.677 C 248.376 120.557,247.823 118.151,247.027 115.330 C 246.232 112.508,245.363 109.425,245.096 108.477 C 244.575 106.625,242.860 104.274,241.496 103.545 C 241.034 103.297,241.389 103.793,242.285 104.647 M229.309 110.400 C 229.309 111.390,229.387 111.795,229.482 111.300 C 229.578 110.805,229.578 109.995,229.482 109.500 C 229.387 109.005,229.309 109.410,229.309 110.400 M229.634 113.000 C 229.622 113.440,229.787 114.070,230.000 114.400 C 230.514 115.195,230.514 114.196,230.000 113.000 L 229.656 112.200 229.634 113.000 M230.434 115.800 C 230.422 116.240,230.587 116.870,230.800 117.200 C 231.314 117.995,231.314 116.996,230.800 115.800 L 230.456 115.000 230.434 115.800 M231.234 119.000 C 231.222 119.440,231.387 120.070,231.600 120.400 C 232.114 121.195,232.114 120.196,231.600 119.000 L 231.256 118.200 231.234 119.000 M232.034 121.800 C 232.022 122.240,232.187 122.870,232.400 123.200 C 232.914 123.995,232.914 122.996,232.400 121.800 L 232.056 121.000 232.034 121.800 M248.434 121.800 C 248.422 122.240,248.587 122.870,248.800 123.200 C 249.314 123.995,249.314 122.996,248.800 121.800 L 248.456 121.000 248.434 121.800 M382.000 122.900 C 382.002 123.422,383.567 126.836,383.581 126.349 C 383.602 125.623,382.499 122.800,382.195 122.800 C 382.088 122.800,382.000 122.845,382.000 122.900 M232.856 124.600 C 232.856 125.040,233.011 125.760,233.200 126.200 L 233.544 127.000 233.544 126.200 C 233.544 125.760,233.389 125.040,233.200 124.600 L 232.856 123.800 232.856 124.600 M249.234 124.600 C 249.222 125.040,249.387 125.670,249.600 126.000 C 250.114 126.795,250.114 125.796,249.600 124.600 L 249.256 123.800 249.234 124.600 M290.800 125.183 C 290.250 125.359,288.990 125.741,288.000 126.033 C 283.637 127.318,278.787 130.949,275.973 135.039 C 274.168 137.663,274.583 137.582,276.536 134.930 C 281.327 128.422,288.891 124.853,296.991 125.278 C 298.875 125.377,300.188 125.312,299.908 125.135 C 299.259 124.723,292.121 124.760,290.800 125.183 M302.771 126.410 C 303.966 126.839,305.026 127.107,305.129 127.005 C 305.231 126.902,304.974 126.711,304.557 126.580 C 304.141 126.449,303.487 126.175,303.105 125.971 C 302.723 125.767,302.003 125.606,301.505 125.614 C 300.972 125.623,301.493 125.950,302.771 126.410 M233.634 127.600 C 233.646 127.930,233.811 128.560,234.000 129.000 L 234.344 129.800 234.366 129.000 C 234.378 128.560,234.213 127.930,234.000 127.600 C 233.655 127.067,233.615 127.067,233.634 127.600 M250.056 127.600 C 250.056 127.930,250.211 128.560,250.400 129.000 C 250.617 129.504,250.744 129.578,250.744 129.200 C 250.744 128.870,250.589 128.240,250.400 127.800 C 250.183 127.296,250.056 127.222,250.056 127.600 M306.000 127.583 C 307.206 128.475,308.000 128.824,308.000 128.461 C 308.000 128.259,307.685 127.982,307.300 127.846 C 306.915 127.711,306.330 127.496,306.000 127.369 C 305.467 127.165,305.467 127.188,306.000 127.583 M383.845 129.200 C 383.990 130.410,384.174 131.475,384.254 131.567 C 384.607 131.970,384.346 128.138,383.984 127.600 C 383.703 127.182,383.661 127.667,383.845 129.200 M203.511 127.893 C 204.451 127.978,205.891 127.977,206.711 127.891 C 207.530 127.805,206.760 127.736,205.000 127.737 C 203.240 127.739,202.570 127.809,203.511 127.893 M198.615 128.376 C 198.476 128.601,198.991 128.659,199.891 128.520 C 201.900 128.210,202.061 128.000,200.290 128.000 C 199.497 128.000,198.743 128.169,198.615 128.376 M208.433 128.147 C 208.525 128.228,209.320 128.414,210.200 128.562 C 211.346 128.754,211.630 128.714,211.200 128.421 C 210.660 128.053,208.032 127.793,208.433 128.147 M196.200 129.200 C 195.908 129.673,196.299 129.673,197.400 129.200 C 198.171 128.869,198.169 128.855,197.324 128.828 C 196.842 128.813,196.336 128.980,196.200 129.200 M309.200 129.607 C 313.158 132.981,315.696 136.270,316.995 139.709 C 317.391 140.759,317.808 141.526,317.920 141.413 C 319.034 140.299,312.025 130.605,309.073 129.177 C 308.312 128.809,308.328 128.864,309.200 129.607 M234.434 130.400 C 234.446 130.730,234.611 131.360,234.800 131.800 L 235.144 132.600 235.166 131.800 C 235.178 131.360,235.013 130.730,234.800 130.400 C 234.455 129.867,234.415 129.867,234.434 130.400 M250.856 130.400 C 250.856 130.730,251.011 131.360,251.200 131.800 C 251.417 132.304,251.544 132.378,251.544 132.000 C 251.544 131.670,251.389 131.040,251.200 130.600 C 250.983 130.096,250.856 130.022,250.856 130.400 M216.000 130.533 C 216.000 130.606,216.885 131.238,217.966 131.939 C 232.043 141.061,231.175 163.002,216.400 171.515 C 215.190 172.212,214.397 172.786,214.638 172.791 C 214.879 172.796,216.229 172.060,217.638 171.156 C 231.905 162.000,232.164 141.207,218.130 131.552 C 216.573 130.481,216.000 130.206,216.000 130.533 M191.000 132.108 C 187.908 134.381,183.035 140.368,183.720 141.053 C 183.862 141.195,184.143 140.875,184.346 140.342 C 185.132 138.273,187.864 135.153,191.600 132.056 C 192.925 130.957,192.517 130.992,191.000 132.108 M384.065 133.200 C 384.025 133.750,383.899 134.920,383.785 135.800 C 383.606 137.194,383.634 137.273,384.008 136.414 C 384.245 135.872,384.371 134.702,384.289 133.814 C 384.207 132.926,384.106 132.650,384.065 133.200 M235.228 133.000 C 235.214 133.220,235.728 135.200,236.372 137.400 C 237.015 139.600,237.554 141.003,237.571 140.519 C 237.587 140.034,237.439 139.224,237.242 138.719 C 237.045 138.213,236.665 136.990,236.399 136.000 C 235.829 133.880,235.265 132.435,235.228 133.000 M251.634 133.400 C 251.622 133.840,251.787 134.470,252.000 134.800 C 252.514 135.595,252.514 134.596,252.000 133.400 L 251.656 132.600 251.634 133.400 M252.434 136.400 C 252.446 136.730,252.611 137.360,252.800 137.800 L 253.144 138.600 253.166 137.800 C 253.178 137.360,253.013 136.730,252.800 136.400 C 252.455 135.867,252.415 135.867,252.434 136.400 M273.875 138.900 C 272.652 141.726,272.463 142.369,271.985 145.330 C 270.490 154.602,275.868 164.968,284.487 169.424 C 287.179 170.816,287.426 170.620,284.800 169.176 C 273.235 162.816,269.041 149.825,274.705 137.900 C 274.783 137.735,274.755 137.600,274.642 137.600 C 274.530 137.600,274.184 138.185,273.875 138.900 M383.000 138.400 C 382.850 138.873,382.817 139.350,382.927 139.460 C 383.037 139.570,383.250 139.273,383.400 138.800 C 383.550 138.327,383.583 137.850,383.473 137.740 C 383.363 137.630,383.150 137.927,383.000 138.400 M253.212 139.200 C 253.212 139.530,253.387 140.070,253.600 140.400 C 253.945 140.933,253.988 140.933,253.988 140.400 C 253.988 140.070,253.813 139.530,253.600 139.200 C 253.255 138.667,253.212 138.667,253.212 139.200 M381.554 141.874 C 380.855 143.326,375.790 148.675,360.983 163.600 C 339.113 185.645,339.684 184.921,340.899 189.043 C 341.331 190.511,343.200 193.768,343.200 193.055 C 343.200 192.872,342.827 192.199,342.371 191.559 C 341.316 190.078,340.936 186.623,341.602 184.558 C 342.002 183.314,345.989 179.093,361.398 163.600 C 378.976 145.926,383.490 140.956,382.690 140.156 C 382.575 140.042,382.064 140.815,381.554 141.874 M292.400 141.200 C 291.867 141.545,291.867 141.588,292.400 141.588 C 292.730 141.588,293.270 141.413,293.600 141.200 C 294.133 140.855,294.133 140.812,293.600 140.812 C 293.270 140.812,292.730 140.987,292.400 141.200 M297.200 141.200 C 297.530 141.413,298.070 141.588,298.400 141.588 C 298.933 141.588,298.933 141.545,298.400 141.200 C 298.070 140.987,297.530 140.812,297.200 140.812 C 296.667 140.812,296.667 140.855,297.200 141.200 M237.843 142.600 C 237.965 143.260,238.210 144.250,238.386 144.800 C 238.563 145.350,238.906 146.520,239.148 147.400 C 241.209 154.877,242.404 159.234,243.023 161.530 C 243.160 162.042,243.363 162.370,243.474 162.260 C 243.584 162.149,243.206 160.381,242.634 158.330 C 242.062 156.278,241.395 153.880,241.151 153.000 C 240.907 152.120,240.569 150.950,240.400 150.400 C 240.231 149.850,239.868 148.590,239.592 147.600 C 238.542 143.823,238.286 142.976,237.959 142.200 C 237.713 141.617,237.681 141.725,237.843 142.600 M254.034 142.000 C 254.046 142.330,254.211 142.960,254.400 143.400 L 254.744 144.200 254.766 143.400 C 254.778 142.960,254.613 142.330,254.400 142.000 C 254.055 141.467,254.015 141.467,254.034 142.000 M289.880 143.053 C 282.756 150.177,292.927 160.592,300.858 154.295 C 304.395 151.488,303.748 143.891,299.804 141.925 C 299.229 141.638,299.298 141.791,300.045 142.462 C 305.182 147.072,302.764 155.283,296.090 155.892 C 289.401 156.502,285.415 148.371,290.027 143.524 C 291.986 141.464,291.863 141.070,289.880 143.053 M318.068 142.600 C 318.074 143.040,318.224 143.850,318.400 144.400 L 318.720 145.400 318.732 144.400 C 318.738 143.850,318.589 143.040,318.400 142.600 L 318.056 141.800 318.068 142.600 M203.600 143.484 C 194.164 145.017,195.424 158.925,205.000 158.943 C 208.203 158.949,213.617 155.084,212.280 153.746 C 212.164 153.630,211.779 154.135,211.426 154.868 C 208.899 160.106,200.490 159.743,198.215 154.298 C 195.798 148.513,199.832 143.542,206.628 143.930 C 208.061 144.012,211.068 146.401,211.643 147.914 C 211.852 148.462,212.128 148.805,212.257 148.677 C 213.920 147.013,207.092 142.917,203.600 143.484 M182.273 144.153 C 182.123 144.545,182.011 145.166,182.025 145.533 C 182.042 145.975,182.181 145.874,182.437 145.234 C 182.649 144.703,182.761 144.082,182.685 143.854 C 182.609 143.627,182.424 143.761,182.273 144.153 M254.834 144.800 C 254.846 145.130,255.011 145.760,255.200 146.200 L 255.544 147.000 255.566 146.200 C 255.578 145.760,255.413 145.130,255.200 144.800 C 254.855 144.267,254.815 144.267,254.834 144.800 M181.450 147.650 C 181.135 149.223,181.194 153.894,181.544 155.139 C 181.689 155.656,181.807 153.901,181.807 151.239 C 181.807 145.893,181.805 145.873,181.450 147.650 M255.634 147.600 C 255.646 147.930,255.811 148.560,256.000 149.000 L 256.344 149.800 256.366 149.000 C 256.378 148.560,256.213 147.930,256.000 147.600 C 255.655 147.067,255.615 147.067,255.634 147.600 M212.514 151.400 C 212.517 152.500,212.595 152.903,212.687 152.295 C 212.779 151.686,212.777 150.786,212.682 150.295 C 212.587 149.803,212.511 150.300,212.514 151.400 M256.640 151.466 C 257.008 152.999,257.200 153.144,257.200 151.890 C 257.200 151.317,257.013 150.732,256.784 150.590 C 256.511 150.421,256.462 150.723,256.640 151.466 M318.222 153.022 C 318.072 153.825,318.038 154.572,318.148 154.682 C 318.258 154.792,318.472 154.225,318.622 153.422 C 318.773 152.619,318.806 151.873,318.696 151.763 C 318.586 151.653,318.373 152.219,318.222 153.022 M257.444 154.200 C 257.773 155.671,258.002 155.990,257.994 154.967 C 257.991 154.545,257.805 153.930,257.582 153.600 C 257.285 153.162,257.248 153.324,257.444 154.200 M317.400 156.000 C 317.250 156.473,317.217 156.950,317.327 157.060 C 317.437 157.170,317.650 156.873,317.800 156.400 C 317.950 155.927,317.983 155.450,317.873 155.340 C 317.763 155.230,317.550 155.527,317.400 156.000 M258.254 157.000 C 258.382 157.660,259.009 160.090,259.649 162.400 C 260.288 164.710,261.009 167.320,261.252 168.200 C 261.494 169.080,261.831 170.250,262.000 170.800 C 262.169 171.350,262.529 172.610,262.800 173.600 C 263.071 174.590,263.434 175.850,263.606 176.400 C 263.778 176.950,264.316 178.930,264.800 180.800 C 265.284 182.670,265.828 184.650,266.008 185.200 C 266.188 185.750,266.448 186.716,266.587 187.347 C 266.726 187.978,266.936 188.398,267.054 188.280 C 267.172 188.161,266.600 185.665,265.782 182.732 C 264.507 178.155,262.303 170.215,260.750 164.600 C 260.506 163.720,260.169 162.550,260.000 162.000 C 259.831 161.450,259.473 160.190,259.204 159.200 C 258.548 156.784,257.939 155.373,258.254 157.000 M182.034 157.000 C 182.022 157.440,182.187 158.070,182.400 158.400 C 182.914 159.195,182.914 158.196,182.400 157.000 L 182.056 156.200 182.034 157.000 M316.240 158.840 C 315.886 159.549,315.674 160.207,315.769 160.302 C 315.864 160.397,316.238 159.901,316.600 159.200 C 316.962 158.499,317.174 157.841,317.071 157.738 C 316.968 157.635,316.594 158.131,316.240 158.840 M182.813 159.609 C 182.783 161.022,188.495 169.238,189.092 168.642 C 189.198 168.535,188.828 167.992,188.270 167.433 C 186.593 165.757,185.189 163.756,183.975 161.313 C 183.342 160.041,182.819 159.274,182.813 159.609 M314.181 162.300 C 312.305 164.825,309.211 167.490,306.439 168.969 C 304.988 169.743,304.023 170.382,304.295 170.388 C 306.164 170.432,313.748 164.313,315.210 161.582 C 315.878 160.332,315.388 160.674,314.181 162.300 M243.606 163.433 C 243.609 163.855,243.795 164.470,244.018 164.800 C 244.315 165.238,244.352 165.076,244.156 164.200 C 243.827 162.729,243.598 162.410,243.606 163.433 M244.434 166.200 C 244.422 166.640,244.587 167.270,244.800 167.600 C 245.314 168.395,245.314 167.396,244.800 166.200 L 244.456 165.400 244.434 166.200 M245.206 169.033 C 245.209 169.455,245.395 170.070,245.618 170.400 C 245.915 170.838,245.952 170.676,245.756 169.800 C 245.427 168.329,245.198 168.010,245.206 169.033 M189.600 169.044 C 189.600 169.492,194.594 172.800,195.271 172.800 C 195.536 172.800,194.684 172.157,193.376 171.370 C 192.069 170.584,190.685 169.656,190.300 169.308 C 189.915 168.960,189.600 168.842,189.600 169.044 M287.600 170.800 C 287.930 171.013,288.560 171.178,289.000 171.166 L 289.800 171.144 289.000 170.800 C 287.804 170.286,286.805 170.286,287.600 170.800 M302.000 170.800 C 301.176 171.064,301.141 171.126,301.800 171.154 C 302.240 171.173,302.870 171.013,303.200 170.800 C 303.901 170.347,303.414 170.347,302.000 170.800 M290.400 171.591 C 290.939 171.948,295.168 172.204,294.767 171.856 C 294.675 171.776,293.520 171.595,292.200 171.453 C 290.557 171.276,289.989 171.320,290.400 171.591 M297.800 171.600 L 295.800 171.874 297.800 171.931 C 298.900 171.962,300.070 171.813,300.400 171.600 C 301.096 171.150,301.079 171.150,297.800 171.600 M246.034 172.200 C 246.022 172.640,246.187 173.270,246.400 173.600 C 246.914 174.395,246.914 173.396,246.400 172.200 L 246.056 171.400 246.034 172.200 M196.107 173.024 C 196.599 173.542,199.309 174.390,200.400 174.367 C 201.078 174.353,200.821 174.185,199.600 173.846 C 198.610 173.571,197.350 173.201,196.800 173.024 C 196.250 172.846,195.938 172.846,196.107 173.024 M212.600 173.200 C 211.829 173.531,211.831 173.545,212.676 173.572 C 213.158 173.587,213.664 173.420,213.800 173.200 C 214.092 172.727,213.701 172.727,212.600 173.200 M209.800 174.000 L 208.600 174.305 209.876 174.353 C 210.578 174.379,211.264 174.220,211.400 174.000 C 211.674 173.557,211.540 173.557,209.800 174.000 M203.100 174.693 C 204.035 174.777,205.565 174.777,206.500 174.693 C 207.435 174.609,206.670 174.540,204.800 174.540 C 202.930 174.540,202.165 174.609,203.100 174.693 M246.834 175.000 C 246.822 175.440,246.987 176.070,247.200 176.400 C 247.714 177.195,247.714 176.196,247.200 175.000 L 246.856 174.200 246.834 175.000 M123.254 176.867 C 123.225 177.234,123.084 177.864,122.941 178.267 C 122.741 178.833,122.795 178.896,123.175 178.546 C 123.446 178.297,123.587 177.667,123.488 177.146 C 123.390 176.626,123.284 176.500,123.254 176.867 M247.634 177.800 C 247.622 178.240,247.787 178.870,248.000 179.200 C 248.514 179.995,248.514 178.996,248.000 177.800 L 247.656 177.000 247.634 177.800 M121.398 180.655 C 119.360 183.023,118.431 183.163,104.590 183.182 L 92.180 183.200 56.090 219.300 C 36.241 239.155,19.752 255.760,19.449 256.200 C 15.055 262.571,14.504 270.023,17.898 277.200 C 19.694 280.999,42.455 303.608,43.690 302.820 C 55.061 295.573,70.182 295.039,82.278 301.456 C 101.988 311.912,109.050 336.347,97.942 355.653 L 96.876 357.506 108.738 369.283 C 118.524 378.999,121.007 381.255,122.926 382.172 C 129.181 385.162,134.988 385.095,141.590 381.956 C 143.997 380.811,147.019 377.900,180.476 344.489 L 216.752 308.263 216.876 295.031 L 217.000 281.800 217.979 280.354 C 219.263 278.457,221.280 277.108,223.339 276.772 C 224.951 276.508,224.960 276.499,223.635 276.450 C 222.831 276.421,221.583 276.803,220.595 277.382 L 218.920 278.364 213.660 273.124 C 207.762 267.249,208.052 267.777,209.400 265.363 C 210.630 263.160,210.685 260.998,209.571 258.628 C 208.613 256.590,201.223 249.200,200.143 249.200 C 199.728 249.200,200.167 249.665,201.222 250.343 C 207.554 254.415,211.082 260.513,209.415 264.503 C 206.512 271.450,200.562 271.354,193.688 264.249 C 187.874 258.239,187.823 253.028,193.548 250.002 C 194.347 249.581,194.758 249.227,194.462 249.218 C 194.166 249.208,193.394 249.577,192.748 250.037 C 191.316 251.056,192.009 251.569,184.365 243.839 L 178.470 237.878 179.483 236.346 C 181.977 232.577,181.167 229.571,176.301 224.541 C 171.358 219.431,167.413 218.214,163.991 220.744 C 162.359 221.950,162.728 222.190,156.168 215.646 C 147.907 207.404,148.591 208.292,149.469 206.947 C 149.947 206.215,149.561 206.465,148.355 207.669 C 144.326 211.692,140.196 211.026,134.954 205.507 C 130.430 200.744,130.093 197.086,133.835 193.344 C 137.474 189.705,141.557 190.301,146.452 195.187 C 148.391 197.123,149.816 198.404,149.618 198.034 C 149.421 197.665,147.850 196.016,146.128 194.371 C 141.802 190.238,138.342 189.553,134.677 192.105 C 134.059 192.535,133.479 192.823,133.387 192.744 C 131.438 191.070,122.000 181.355,122.000 181.023 C 122.000 180.768,122.213 180.347,122.473 180.087 C 122.734 179.826,122.868 179.534,122.771 179.438 C 122.675 179.342,122.057 179.889,121.398 180.655 M248.434 180.600 C 248.422 181.040,248.587 181.670,248.800 182.000 C 249.314 182.795,249.314 181.796,248.800 180.600 L 248.456 179.800 248.434 180.600 M249.234 183.400 C 249.222 183.840,249.387 184.470,249.600 184.800 C 250.114 185.595,250.114 184.596,249.600 183.400 L 249.256 182.600 249.234 183.400 M250.034 186.400 C 250.046 186.730,250.211 187.360,250.400 187.800 L 250.744 188.600 250.766 187.800 C 250.778 187.360,250.613 186.730,250.400 186.400 C 250.055 185.867,250.015 185.867,250.034 186.400 M250.834 189.200 C 250.846 189.530,251.011 190.160,251.200 190.600 L 251.544 191.400 251.566 190.600 C 251.578 190.160,251.413 189.530,251.200 189.200 C 250.855 188.667,250.815 188.667,250.834 189.200 M267.234 189.400 C 267.222 189.840,267.387 190.470,267.600 190.800 C 268.114 191.595,268.114 190.596,267.600 189.400 L 267.256 188.600 267.234 189.400 M251.862 192.791 C 252.191 194.684,253.113 197.542,253.155 196.800 C 253.174 196.470,252.836 195.120,252.405 193.800 C 251.973 192.480,251.729 192.026,251.862 192.791 M268.034 192.200 C 268.022 192.640,268.187 193.270,268.400 193.600 C 268.914 194.395,268.914 193.396,268.400 192.200 L 268.056 191.400 268.034 192.200 M268.834 195.200 C 268.846 195.530,269.011 196.160,269.200 196.600 L 269.544 197.400 269.566 196.600 C 269.578 196.160,269.413 195.530,269.200 195.200 C 268.855 194.667,268.815 194.667,268.834 195.200 M253.234 198.000 C 253.246 198.330,253.411 198.960,253.600 199.400 L 253.944 200.200 253.966 199.400 C 253.978 198.960,253.813 198.330,253.600 198.000 C 253.255 197.467,253.215 197.467,253.234 198.000 M269.646 198.000 C 269.665 198.330,269.824 199.050,270.000 199.600 L 270.320 200.600 270.354 199.600 C 270.373 199.050,270.213 198.330,270.000 198.000 C 269.655 197.467,269.616 197.467,269.646 198.000 M150.200 202.400 C 150.200 204.118,150.332 205.316,150.494 205.062 C 150.656 204.808,150.788 203.610,150.788 202.400 C 150.788 201.190,150.656 199.992,150.494 199.738 C 150.332 199.484,150.200 200.682,150.200 202.400 M254.249 201.600 C 255.251 207.197,260.235 210.732,264.800 209.082 C 267.801 207.998,270.444 205.123,270.372 203.022 C 270.354 202.504,270.128 202.789,269.761 203.792 C 267.229 210.708,257.343 210.572,255.252 203.592 C 254.445 200.899,253.946 199.908,254.249 201.600 M321.822 204.291 C 319.644 204.845,316.401 207.903,316.404 209.400 C 316.404 209.620,316.814 209.123,317.314 208.297 C 319.465 204.744,324.159 203.526,327.800 205.576 C 329.283 206.411,329.332 206.416,328.468 205.648 C 326.968 204.315,324.061 203.721,321.822 204.291 M315.831 211.100 C 315.703 211.705,315.763 212.740,315.965 213.400 C 316.288 214.457,316.335 214.326,316.366 212.300 C 316.403 209.810,316.200 209.355,315.831 211.100 M316.400 215.090 C 316.400 215.311,316.733 215.921,317.140 216.446 C 317.547 216.971,317.983 217.670,318.109 218.000 C 318.235 218.332,318.351 218.384,318.368 218.118 C 318.386 217.853,317.950 216.972,317.400 216.162 C 316.850 215.351,316.400 214.869,316.400 215.090 M170.546 220.434 C 172.560 220.993,178.415 226.567,179.570 229.026 C 182.516 235.292,176.105 242.060,169.743 239.402 C 167.806 238.593,162.072 232.982,161.157 231.000 C 158.256 224.721,163.744 218.545,170.546 220.434 M119.000 226.842 C 124.156 228.250,126.469 234.372,123.477 238.689 C 120.586 242.860,94.646 267.859,92.643 268.404 C 86.429 270.093,80.934 263.763,83.430 257.790 C 84.067 256.265,110.561 229.321,112.910 227.809 C 113.877 227.187,115.738 226.565,117.000 226.443 C 117.220 226.422,118.120 226.601,119.000 226.842 M296.400 229.302 C 295.328 229.624,289.588 235.118,271.893 252.761 L 248.785 275.800 236.893 276.012 L 225.000 276.223 236.801 276.312 L 248.603 276.400 271.001 253.974 C 295.062 229.885,295.633 229.392,299.390 229.443 C 300.906 229.464,301.495 229.362,300.993 229.166 C 299.911 228.743,298.080 228.798,296.400 229.302 M302.000 229.790 C 302.000 229.894,302.585 230.265,303.300 230.614 L 304.600 231.248 303.600 230.433 C 302.637 229.648,302.000 229.392,302.000 229.790 M195.800 248.800 C 195.225 249.047,195.619 249.144,197.200 249.144 C 198.781 249.144,199.175 249.047,198.600 248.800 C 198.160 248.611,197.530 248.456,197.200 248.456 C 196.870 248.456,196.240 248.611,195.800 248.800 M144.051 251.364 C 148.401 253.181,150.316 257.725,148.450 261.800 C 147.600 263.655,120.456 290.953,118.325 292.096 C 111.993 295.492,104.636 288.092,107.973 281.684 C 109.057 279.602,136.186 252.624,138.200 251.625 C 140.101 250.683,142.197 250.589,144.051 251.364 M169.046 275.965 C 172.345 277.463,174.176 281.457,173.207 285.043 C 172.631 287.179,147.209 313.464,143.222 316.048 C 137.558 319.717,129.837 314.178,131.613 307.720 C 132.190 305.623,133.469 304.247,152.363 285.416 C 163.203 274.613,164.478 273.891,169.046 275.965 " stroke="none" fill="#00EB3B" fill-rule="evenodd"></path><path id="path1" d="M258.500 0.270 C 257.565 0.367,256.800 0.583,256.800 0.751 C 256.800 0.918,255.900 1.300,254.800 1.600 C 253.700 1.900,252.800 2.292,252.800 2.472 C 252.800 2.653,252.440 2.800,252.000 2.800 C 251.560 2.800,251.200 2.980,251.200 3.200 C 251.200 3.420,250.840 3.600,250.400 3.600 C 249.960 3.600,249.600 3.780,249.600 4.000 C 249.600 4.220,249.280 4.400,248.888 4.400 C 248.497 4.400,247.917 4.760,247.600 5.200 C 247.283 5.640,246.752 6.000,246.421 6.000 C 245.561 6.000,108.400 143.235,108.400 144.095 C 108.400 144.483,108.220 144.800,108.000 144.800 C 107.743 144.800,107.600 148.733,107.600 155.800 L 107.600 166.800 96.600 166.800 C 89.533 166.800,85.600 166.943,85.600 167.200 C 85.600 167.420,85.285 167.600,84.899 167.600 C 84.046 167.600,6.000 245.572,6.000 246.424 C 6.000 246.754,5.640 247.283,5.200 247.600 C 4.760 247.917,4.400 248.497,4.400 248.888 C 4.400 249.280,4.220 249.600,4.000 249.600 C 3.780 249.600,3.600 249.960,3.600 250.400 C 3.600 250.840,3.420 251.200,3.200 251.200 C 2.980 251.200,2.800 251.560,2.800 252.000 C 2.800 252.440,2.620 252.800,2.400 252.800 C 2.180 252.800,2.000 253.160,2.000 253.600 C 2.000 254.040,1.820 254.400,1.600 254.400 C 1.380 254.400,1.200 254.925,1.200 255.567 C 1.200 256.208,0.975 256.808,0.700 256.900 C -0.026 257.142,-0.026 278.858,0.700 279.100 C 0.975 279.192,1.200 279.691,1.200 280.210 C 1.200 280.728,1.380 281.264,1.600 281.400 C 1.820 281.536,2.000 281.997,2.000 282.424 C 2.000 282.851,2.180 283.200,2.400 283.200 C 2.620 283.200,2.800 283.560,2.800 284.000 C 2.800 284.440,2.980 284.800,3.200 284.800 C 3.420 284.800,3.600 285.160,3.600 285.600 C 3.600 286.040,3.780 286.400,4.000 286.400 C 4.220 286.400,4.400 286.636,4.400 286.925 C 4.400 287.213,4.760 287.836,5.200 288.308 C 5.640 288.780,6.000 289.279,6.000 289.418 C 6.000 290.138,37.477 321.600,38.198 321.600 C 38.529 321.600,38.800 321.780,38.800 322.000 C 38.800 322.235,40.200 322.400,42.200 322.400 C 44.200 322.400,45.600 322.235,45.600 322.000 C 45.600 321.780,45.884 321.600,46.231 321.600 C 46.579 321.600,47.554 320.880,48.400 320.000 C 49.246 319.120,50.097 318.400,50.293 318.400 C 50.489 318.400,51.007 318.085,51.445 317.700 C 52.228 317.011,53.023 316.513,54.600 315.725 C 55.040 315.505,55.803 315.117,56.295 314.862 C 56.787 314.608,57.552 314.400,57.995 314.400 C 58.438 314.400,58.800 314.220,58.800 314.000 C 58.800 313.754,60.800 313.600,64.000 313.600 C 67.200 313.600,69.200 313.754,69.200 314.000 C 69.200 314.220,69.740 314.400,70.400 314.400 C 71.060 314.400,71.600 314.580,71.600 314.800 C 71.600 315.020,72.140 315.200,72.800 315.200 C 73.460 315.200,74.000 315.380,74.000 315.600 C 74.000 315.820,74.236 316.000,74.525 316.000 C 74.813 316.000,75.436 316.360,75.908 316.800 C 76.380 317.240,76.867 317.600,76.991 317.600 C 77.395 317.600,82.400 322.775,82.400 323.193 C 82.400 323.417,82.580 323.600,82.800 323.600 C 83.020 323.600,83.200 323.870,83.200 324.200 C 83.200 324.530,83.380 324.800,83.600 324.800 C 83.820 324.800,84.000 325.070,84.000 325.400 C 84.000 325.730,84.180 326.000,84.400 326.000 C 84.620 326.000,84.800 326.360,84.800 326.800 C 84.800 327.240,84.980 327.600,85.200 327.600 C 85.420 327.600,85.600 328.140,85.600 328.800 C 85.600 329.460,85.780 330.000,86.000 330.000 C 86.220 330.000,86.400 330.889,86.400 331.976 C 86.400 333.063,86.580 334.064,86.800 334.200 C 87.320 334.522,87.320 337.478,86.800 337.800 C 86.580 337.936,86.400 338.937,86.400 340.024 C 86.400 341.111,86.220 342.000,86.000 342.000 C 85.780 342.000,85.600 342.450,85.600 343.000 C 85.600 343.550,85.420 344.000,85.200 344.000 C 84.980 344.000,84.800 344.360,84.800 344.800 C 84.800 345.240,84.620 345.600,84.400 345.600 C 84.180 345.600,84.000 345.960,84.000 346.400 C 84.000 346.840,83.820 347.200,83.600 347.200 C 83.380 347.200,83.200 347.438,83.200 347.729 C 83.200 348.020,82.300 349.222,81.200 350.400 C 80.100 351.578,79.200 352.780,79.200 353.071 C 79.200 353.362,79.020 353.600,78.800 353.600 C 78.580 353.600,78.400 353.960,78.400 354.400 C 78.400 354.840,78.220 355.200,78.000 355.200 C 77.475 355.200,77.475 360.675,78.000 361.000 C 78.220 361.136,78.400 361.506,78.400 361.822 C 78.400 362.524,109.881 394.000,110.582 394.000 C 110.721 394.000,111.220 394.360,111.692 394.800 C 112.164 395.240,112.787 395.600,113.075 395.600 C 113.364 395.600,113.600 395.780,113.600 396.000 C 113.600 396.220,113.960 396.400,114.400 396.400 C 114.840 396.400,115.200 396.580,115.200 396.800 C 115.200 397.020,115.560 397.200,116.000 397.200 C 116.440 397.200,116.800 397.380,116.800 397.600 C 116.800 397.820,117.239 398.000,117.776 398.000 C 118.313 398.000,118.864 398.180,119.000 398.400 C 119.136 398.620,119.582 398.800,119.990 398.800 C 120.399 398.800,120.808 399.025,120.900 399.300 C 121.028 399.684,123.609 399.800,132.000 399.800 C 140.391 399.800,142.972 399.684,143.100 399.300 C 143.192 399.025,143.792 398.800,144.433 398.800 C 145.075 398.800,145.600 398.620,145.600 398.400 C 145.600 398.180,145.960 398.000,146.400 398.000 C 146.840 398.000,147.200 397.820,147.200 397.600 C 147.200 397.380,147.560 397.200,148.000 397.200 C 148.440 397.200,148.800 397.020,148.800 396.800 C 148.800 396.580,149.160 396.400,149.600 396.400 C 150.040 396.400,150.400 396.220,150.400 396.000 C 150.400 395.780,150.720 395.600,151.112 395.600 C 151.503 395.600,152.083 395.240,152.400 394.800 C 152.717 394.360,153.171 394.000,153.409 394.000 C 154.799 394.000,232.400 316.383,232.400 314.993 C 232.400 314.667,232.580 314.400,232.800 314.400 C 233.057 314.400,233.200 310.467,233.200 303.400 L 233.200 292.400 244.200 292.400 C 251.267 292.400,255.200 292.257,255.200 292.000 C 255.200 291.780,255.529 291.600,255.931 291.600 C 256.555 291.600,303.329 245.388,305.800 242.330 C 307.310 240.462,307.600 239.606,307.600 237.019 C 307.600 234.176,306.664 231.603,305.626 231.595 C 305.282 231.593,304.190 231.119,303.200 230.544 C 297.645 227.314,297.589 227.355,271.001 253.974 L 248.603 276.400 237.001 276.424 C 221.702 276.455,220.441 276.716,217.979 280.354 L 217.000 281.800 216.876 295.031 L 216.752 308.263 180.476 344.489 C 147.019 377.900,143.997 380.811,141.590 381.956 C 134.988 385.095,129.181 385.162,122.926 382.172 C 121.007 381.255,118.524 378.999,108.738 369.283 L 96.876 357.506 97.942 355.653 C 118.001 320.789,77.453 281.302,43.690 302.820 C 42.455 303.608,19.694 280.999,17.898 277.200 C 14.504 270.023,15.055 262.571,19.449 256.200 C 19.752 255.760,36.241 239.155,56.090 219.300 L 92.180 183.200 104.390 183.198 C 124.053 183.194,123.600 183.659,123.600 163.518 L 123.600 151.390 189.900 85.181 C 247.149 28.011,256.509 18.822,258.465 17.873 C 264.738 14.830,271.321 14.835,277.535 17.887 C 279.779 18.990,303.200 41.504,303.200 42.559 C 303.200 42.786,302.501 44.328,301.648 45.986 C 294.773 59.333,296.059 76.070,304.833 87.442 C 317.380 103.706,339.573 107.868,356.713 97.170 C 357.968 96.387,380.200 118.558,382.154 122.542 C 385.285 128.924,385.120 136.415,381.717 142.400 C 381.114 143.460,372.762 152.175,361.398 163.600 C 345.989 179.093,342.002 183.314,341.602 184.558 C 340.954 186.568,341.312 190.067,342.312 191.497 C 342.736 192.104,343.203 193.095,343.349 193.700 C 343.525 194.426,343.876 194.800,344.384 194.800 C 344.807 194.800,345.264 194.980,345.400 195.200 C 345.726 195.727,352.000 195.727,352.000 195.200 C 352.000 194.980,352.278 194.800,352.617 194.800 C 353.442 194.800,353.739 194.516,373.243 175.071 C 390.139 158.224,394.000 154.193,394.000 153.396 C 394.000 153.165,394.360 152.717,394.800 152.400 C 395.240 152.083,395.600 151.503,395.600 151.112 C 395.600 150.720,395.780 150.400,396.000 150.400 C 396.220 150.400,396.400 150.040,396.400 149.600 C 396.400 149.160,396.580 148.800,396.800 148.800 C 397.020 148.800,397.200 148.440,397.200 148.000 C 397.200 147.560,397.380 147.200,397.600 147.200 C 397.820 147.200,398.000 146.851,398.000 146.424 C 398.000 145.997,398.180 145.536,398.400 145.400 C 398.620 145.264,398.800 144.728,398.800 144.210 C 398.800 143.691,399.025 143.192,399.300 143.100 C 399.684 142.972,399.800 140.391,399.800 132.000 C 399.800 123.609,399.684 121.028,399.300 120.900 C 399.025 120.808,398.800 120.309,398.800 119.790 C 398.800 119.272,398.620 118.736,398.400 118.600 C 398.180 118.464,398.000 118.003,398.000 117.576 C 398.000 117.149,397.820 116.800,397.600 116.800 C 397.380 116.800,397.200 116.440,397.200 116.000 C 397.200 115.560,397.020 115.200,396.800 115.200 C 396.580 115.200,396.400 114.840,396.400 114.400 C 396.400 113.960,396.220 113.600,396.000 113.600 C 395.780 113.600,395.600 113.364,395.600 113.075 C 395.600 112.787,395.240 112.164,394.800 111.692 C 394.360 111.220,394.000 110.721,394.000 110.582 C 394.000 109.740,362.744 78.406,361.900 78.403 C 361.515 78.401,361.200 78.220,361.200 78.000 C 361.200 77.769,359.933 77.600,358.200 77.600 C 356.467 77.600,355.200 77.769,355.200 78.000 C 355.200 78.220,354.840 78.400,354.400 78.400 C 353.960 78.400,353.600 78.580,353.600 78.800 C 353.600 79.020,353.348 79.200,353.041 79.200 C 352.733 79.200,351.562 80.100,350.439 81.200 C 349.315 82.300,348.127 83.200,347.798 83.200 C 347.469 83.200,347.200 83.380,347.200 83.600 C 347.200 83.820,346.840 84.000,346.400 84.000 C 345.960 84.000,345.600 84.180,345.600 84.400 C 345.600 84.620,345.240 84.800,344.800 84.800 C 344.360 84.800,344.000 84.980,344.000 85.200 C 344.000 85.420,343.550 85.600,343.000 85.600 C 342.450 85.600,342.000 85.780,342.000 86.000 C 342.000 86.220,341.100 86.400,340.000 86.400 C 338.900 86.400,338.000 86.580,338.000 86.800 C 338.000 87.020,337.201 87.200,336.224 87.200 C 335.247 87.200,334.336 87.020,334.200 86.800 C 334.064 86.580,333.063 86.400,331.976 86.400 C 330.889 86.400,330.000 86.220,330.000 86.000 C 330.000 85.780,329.460 85.600,328.800 85.600 C 328.140 85.600,327.600 85.420,327.600 85.200 C 327.600 84.980,327.240 84.800,326.800 84.800 C 326.360 84.800,326.000 84.620,326.000 84.400 C 326.000 84.180,325.730 84.000,325.400 84.000 C 325.070 84.000,324.800 83.820,324.800 83.600 C 324.800 83.380,324.530 83.200,324.200 83.200 C 323.870 83.200,323.600 83.020,323.600 82.800 C 323.600 82.580,323.417 82.400,323.193 82.400 C 322.661 82.400,317.600 77.339,317.600 76.807 C 317.600 76.583,317.420 76.400,317.200 76.400 C 316.980 76.400,316.800 76.130,316.800 75.800 C 316.800 75.470,316.620 75.200,316.400 75.200 C 316.180 75.200,316.000 74.930,316.000 74.600 C 316.000 74.270,315.820 74.000,315.600 74.000 C 315.380 74.000,315.200 73.460,315.200 72.800 C 315.200 72.140,315.020 71.600,314.800 71.600 C 314.580 71.600,314.400 71.060,314.400 70.400 C 314.400 69.740,314.220 69.200,314.000 69.200 C 313.754 69.200,313.600 67.200,313.600 64.000 C 313.600 60.800,313.754 58.800,314.000 58.800 C 314.220 58.800,314.400 58.361,314.400 57.824 C 314.400 57.287,314.580 56.736,314.800 56.600 C 315.020 56.464,315.200 56.003,315.200 55.576 C 315.200 55.149,315.336 54.800,315.502 54.800 C 315.669 54.800,316.064 54.215,316.380 53.500 C 316.697 52.785,317.280 51.851,317.678 51.425 C 318.075 50.998,318.400 50.489,318.400 50.293 C 318.400 50.097,319.120 49.246,320.000 48.400 C 320.880 47.554,321.600 46.579,321.600 46.231 C 321.600 45.884,321.780 45.600,322.000 45.600 C 322.235 45.600,322.400 44.200,322.400 42.200 C 322.400 40.200,322.235 38.800,322.000 38.800 C 321.780 38.800,321.600 38.493,321.600 38.118 C 321.600 37.366,293.411 8.924,292.320 8.576 C 291.947 8.457,291.530 8.008,291.394 7.580 C 291.257 7.151,290.888 6.800,290.573 6.800 C 290.258 6.800,290.000 6.620,290.000 6.400 C 290.000 6.180,289.770 6.000,289.488 6.000 C 289.207 6.000,288.717 5.640,288.400 5.200 C 288.083 4.760,287.503 4.400,287.112 4.400 C 286.720 4.400,286.400 4.220,286.400 4.000 C 286.400 3.780,286.040 3.600,285.600 3.600 C 285.160 3.600,284.800 3.420,284.800 3.200 C 284.800 2.980,284.440 2.800,284.000 2.800 C 283.560 2.800,283.200 2.620,283.200 2.400 C 283.200 2.180,282.851 2.000,282.424 2.000 C 281.997 2.000,281.536 1.820,281.400 1.600 C 281.264 1.380,280.728 1.200,280.210 1.200 C 279.691 1.200,279.193 0.980,279.104 0.711 C 278.939 0.217,262.432 -0.136,258.500 0.270 M235.200 102.904 C 230.327 104.374,228.698 108.433,230.454 114.735 C 230.924 116.421,231.826 119.690,232.459 122.000 C 234.287 128.667,234.475 129.342,234.800 130.400 C 234.969 130.950,235.329 132.210,235.600 133.200 C 235.871 134.190,236.231 135.450,236.400 136.000 C 236.569 136.550,236.908 137.765,237.154 138.700 C 237.399 139.635,237.801 141.165,238.046 142.100 C 238.292 143.035,238.631 144.250,238.800 144.800 C 238.969 145.350,239.329 146.610,239.600 147.600 C 239.871 148.590,240.231 149.850,240.400 150.400 C 240.569 150.950,240.904 152.120,241.145 153.000 C 241.386 153.880,241.932 155.860,242.357 157.400 C 242.782 158.940,243.794 162.630,244.604 165.600 C 246.051 170.902,249.898 184.673,251.252 189.400 C 251.441 190.060,251.960 191.950,252.406 193.600 C 253.689 198.348,254.071 199.730,254.400 200.800 C 254.569 201.350,254.951 202.606,255.248 203.592 C 256.939 209.195,264.170 210.808,268.100 206.458 C 270.389 203.924,270.652 202.081,269.395 197.380 C 268.303 193.299,267.882 191.771,267.223 189.500 C 266.830 188.149,266.520 187.038,265.409 183.000 C 263.708 176.824,263.023 174.369,262.423 172.300 C 262.215 171.585,261.871 170.370,261.659 169.600 C 261.446 168.830,260.921 166.940,260.491 165.400 C 260.061 163.860,259.225 160.800,258.632 158.600 C 257.258 153.495,254.239 142.633,253.184 139.000 C 252.737 137.460,252.201 135.570,251.994 134.800 C 251.549 133.149,250.168 128.074,249.545 125.800 C 249.304 124.920,248.969 123.750,248.800 123.200 C 248.631 122.650,248.271 121.390,248.000 120.400 C 247.729 119.410,247.369 118.150,247.200 117.600 C 247.031 117.050,246.697 115.880,246.459 115.000 C 243.877 105.489,242.917 103.915,239.080 102.900 C 236.943 102.335,237.087 102.335,235.200 102.904 M290.035 125.794 C 270.998 130.617,265.882 155.134,281.435 167.006 C 296.560 178.551,318.772 167.483,318.772 148.400 C 318.772 133.709,304.161 122.216,290.035 125.794 M200.800 128.276 C 196.559 128.986,192.610 131.045,188.566 134.655 C 180.574 141.789,179.485 156.157,186.260 165.056 C 199.870 182.933,228.000 173.595,228.000 151.200 C 228.000 136.628,215.225 125.862,200.800 128.276 M298.986 141.483 C 301.824 142.918,303.200 145.233,303.200 148.572 C 303.200 156.813,292.416 159.328,288.499 152.000 C 284.973 145.403,292.269 138.085,298.986 141.483 M209.300 144.718 C 215.689 148.929,212.670 158.962,205.019 158.944 C 202.183 158.938,200.502 158.186,198.938 156.227 C 193.302 149.163,201.772 139.755,209.300 144.718 M136.456 191.488 C 134.898 191.784,132.218 194.793,131.624 196.913 C 129.973 202.811,138.413 211.239,144.640 209.911 C 151.502 208.447,152.409 201.132,146.464 195.199 C 142.486 191.229,140.908 190.643,136.456 191.488 M322.037 204.674 C 317.356 205.638,314.709 212.196,317.400 216.162 C 317.950 216.972,318.400 217.910,318.400 218.246 C 318.400 219.030,319.367 220.000,320.148 220.000 C 320.481 220.000,320.864 220.180,321.000 220.400 C 321.136 220.620,322.396 220.800,323.800 220.800 C 325.204 220.800,326.464 220.620,326.600 220.400 C 326.736 220.180,327.111 220.000,327.434 220.000 C 328.210 220.000,331.600 216.591,331.600 215.811 C 331.600 215.475,331.780 215.200,332.000 215.200 C 332.231 215.200,332.400 213.933,332.400 212.200 C 332.400 210.467,332.231 209.200,332.000 209.200 C 331.780 209.200,331.600 208.917,331.600 208.571 C 331.600 206.675,325.128 204.037,322.037 204.674 M165.802 220.295 C 158.966 222.023,158.630 229.443,165.104 235.702 C 171.340 241.732,177.100 241.399,179.836 234.851 C 182.418 228.673,172.667 218.559,165.802 220.295 M115.310 226.788 C 114.601 226.957,113.521 227.416,112.910 227.809 C 110.561 229.321,84.067 256.265,83.430 257.790 C 80.934 263.763,86.429 270.093,92.643 268.404 C 94.646 267.859,120.586 242.860,123.477 238.689 C 126.469 234.372,124.156 228.250,119.000 226.842 C 117.222 226.356,117.136 226.355,115.310 226.788 M193.548 250.002 C 187.823 253.028,187.874 258.239,193.688 264.249 C 199.601 270.360,204.266 271.327,207.767 267.166 C 211.252 263.024,210.726 259.517,205.859 254.459 C 200.802 249.202,197.396 247.969,193.548 250.002 M138.200 251.625 C 136.186 252.624,109.057 279.602,107.973 281.684 C 104.636 288.092,111.993 295.492,118.325 292.096 C 120.456 290.953,147.600 263.655,148.450 261.800 C 151.399 255.361,144.493 248.505,138.200 251.625 M162.488 275.933 C 161.268 276.584,151.344 286.276,137.846 300.000 C 132.930 304.998,132.068 306.066,131.613 307.720 C 129.837 314.178,137.558 319.717,143.222 316.048 C 147.209 313.464,172.631 287.179,173.207 285.043 C 174.898 278.780,168.055 272.964,162.488 275.933 " stroke="none" fill="#060505" fill-rule="evenodd"></path><path id="path2" d="M262.845 16.632 C 257.285 18.128,260.660 14.934,190.000 85.548 L 124.200 151.305 123.989 164.552 C 123.786 177.328,123.747 177.854,122.889 179.312 C 122.400 180.144,122.000 180.973,122.000 181.155 C 122.000 181.395,131.881 191.451,133.387 192.744 C 133.479 192.823,134.059 192.535,134.677 192.105 C 141.986 187.015,154.236 198.572,149.786 206.358 C 148.594 208.442,147.824 207.321,156.168 215.646 C 162.728 222.190,162.359 221.950,163.991 220.744 C 167.413 218.214,171.358 219.431,176.301 224.541 C 181.167 229.571,181.977 232.577,179.483 236.346 L 178.470 237.878 184.365 243.839 C 191.976 251.535,191.325 251.044,192.686 250.110 C 196.716 247.344,199.619 248.063,204.871 253.130 C 210.462 258.524,211.561 261.492,209.400 265.363 C 208.052 267.777,207.762 267.249,213.660 273.124 L 218.920 278.364 220.760 277.282 L 222.600 276.200 235.693 276.000 L 248.786 275.800 271.893 252.757 C 293.609 231.101,295.118 229.683,296.957 229.189 C 299.198 228.588,301.701 229.048,303.620 230.414 C 305.161 231.511,305.785 231.406,307.289 229.796 C 309.021 227.941,311.092 225.878,315.120 221.995 C 318.435 218.799,318.440 218.792,317.835 217.697 C 315.513 213.494,315.300 211.615,316.803 208.603 C 319.115 203.973,324.398 202.749,328.827 205.819 L 330.348 206.873 335.874 201.245 C 338.913 198.149,341.816 195.158,342.325 194.597 L 343.251 193.577 342.325 192.093 C 338.495 185.951,337.885 186.884,360.974 163.600 C 383.058 141.330,382.920 141.504,383.925 134.442 C 385.120 126.043,383.171 122.713,368.495 108.079 L 357.543 97.158 355.738 98.215 C 343.436 105.425,326.718 104.963,314.689 97.081 C 297.747 85.979,292.104 65.090,301.030 46.518 C 302.004 44.493,302.800 42.731,302.800 42.603 C 302.800 41.669,279.922 19.652,277.767 18.512 C 273.137 16.062,267.572 15.361,262.845 16.632 M240.777 103.188 C 242.770 104.205,244.483 106.301,245.100 108.477 C 246.010 111.688,249.996 126.174,251.242 130.800 C 251.924 133.330,252.622 135.850,252.794 136.400 C 252.966 136.950,253.329 138.210,253.600 139.200 C 253.871 140.190,254.231 141.450,254.400 142.000 C 254.569 142.550,254.927 143.810,255.195 144.800 C 255.464 145.790,255.845 147.013,256.042 147.519 C 256.239 148.024,256.400 148.869,256.400 149.395 C 256.400 149.922,256.580 150.464,256.800 150.600 C 257.020 150.736,257.200 151.278,257.200 151.805 C 257.200 152.331,257.361 153.176,257.558 153.681 C 257.755 154.187,258.136 155.410,258.405 156.400 C 258.673 157.390,259.031 158.650,259.200 159.200 C 259.369 159.750,259.729 161.010,260.000 162.000 C 260.271 162.990,260.633 164.250,260.805 164.800 C 260.977 165.350,261.857 168.500,262.760 171.800 C 264.199 177.059,267.980 190.825,269.242 195.400 C 269.485 196.280,269.845 197.413,270.042 197.919 C 272.535 204.312,266.457 211.209,260.237 209.044 C 256.171 207.628,255.521 206.458,252.366 194.855 C 249.905 185.806,249.310 183.659,248.800 182.000 C 248.631 181.450,248.271 180.190,248.000 179.200 C 247.729 178.210,247.369 176.950,247.200 176.400 C 246.890 175.390,246.279 173.136,245.521 170.200 C 245.293 169.320,244.969 168.150,244.800 167.600 C 244.631 167.050,244.271 165.790,244.000 164.800 C 243.729 163.810,243.369 162.550,243.200 162.000 C 242.869 160.924,242.653 160.148,240.806 153.400 C 240.144 150.980,239.446 148.460,239.255 147.800 C 238.412 144.883,237.845 142.848,235.406 134.000 C 233.981 128.830,232.656 124.060,232.462 123.400 C 232.111 122.211,231.615 120.379,230.754 117.100 C 230.508 116.165,230.103 114.860,229.854 114.200 C 227.076 106.852,234.094 99.779,240.777 103.188 M301.000 125.374 C 303.064 125.866,307.435 127.848,308.329 128.698 C 308.619 128.974,309.000 129.200,309.175 129.200 C 310.540 129.200,315.847 135.868,317.293 139.400 C 322.375 151.813,315.463 167.194,303.200 170.760 C 302.210 171.048,300.987 171.445,300.481 171.642 C 299.976 171.839,297.739 172.000,295.510 172.000 C 279.599 172.000,267.253 155.200,272.897 141.230 C 276.150 133.178,281.286 128.010,288.000 126.033 C 288.990 125.741,290.250 125.353,290.800 125.171 C 291.932 124.794,299.173 124.939,301.000 125.374 M211.972 128.614 C 218.378 130.898,222.691 134.423,225.606 139.757 C 231.375 150.311,228.154 164.132,218.400 170.683 C 216.159 172.188,213.257 173.600,212.405 173.600 C 212.050 173.600,211.544 173.816,211.280 174.080 C 210.070 175.290,197.815 174.517,196.220 173.130 C 196.011 172.949,195.597 172.800,195.301 172.800 C 193.390 172.800,187.638 167.849,185.148 164.061 C 183.236 161.152,182.872 160.280,181.787 156.000 C 179.660 147.617,183.651 137.337,191.068 132.088 C 192.994 130.725,196.796 128.800,197.561 128.800 C 197.934 128.800,198.411 128.632,198.620 128.427 C 199.606 127.458,209.104 127.591,211.972 128.614 M293.000 141.323 C 288.571 142.940,286.674 148.778,289.335 152.600 C 293.636 158.777,302.804 155.860,302.799 148.316 C 302.795 143.233,297.710 139.604,293.000 141.323 M203.443 143.884 C 196.873 144.907,195.483 155.019,201.518 157.883 C 207.792 160.860,214.808 154.150,211.776 148.072 C 210.976 146.469,208.103 144.002,207.028 143.995 C 206.573 143.992,205.840 143.925,205.400 143.847 C 204.960 143.768,204.079 143.785,203.443 143.884 " stroke="none" fill="#fbfbfb" fill-rule="evenodd"></path></g></svg>