<svg xmlns="http://www.w3.org/2000/svg" width="21.005" height="20.998" viewBox="0 0 21.005 20.998">
  <g id="delete" transform="translate(-13771.498 -4344.502)">
    <path id="Subtraction_24" data-name="Subtraction 24" d="M14835,10608c-.1,0-.208,0-.331-.011h-9.33c-.115.007-.228.011-.333.011a5.322,5.322,0,0,1-3.6-1.4,5.377,5.377,0,0,1-1.389-3.937v-9.33a4.805,4.805,0,0,1,5-5.332c.115,0,.227,0,.33.01h9.33c.1-.007.215-.01.329-.01a5.336,5.336,0,0,1,3.6,1.4,5.414,5.414,0,0,1,1.393,3.937v9.33A4.816,4.816,0,0,1,14835,10608Zm-8.849-11.317a.394.394,0,0,0-.291.13.427.427,0,0,0-.1.306s0,.057.014.165c.251,3.124.387,4.521.456,5.143a1.616,1.616,0,0,0,1.628,1.553c.724.015,1.448.022,2.152.022.66,0,1.371-.008,2.111-.022a1.616,1.616,0,0,0,1.669-1.553c.174-1.627.466-5.3.466-5.308a.427.427,0,0,0-.1-.306.4.4,0,0,0-.291-.13Zm-.753-1.9a.4.4,0,0,0-.395.4v.212a.4.4,0,0,0,.395.4h9.207a.4.4,0,0,0,.4-.4v-.212a.4.4,0,0,0-.4-.4h-1.616a.711.711,0,0,1-.693-.559l-.089-.4a1.1,1.1,0,0,0-1.058-.823h-2.295a1.1,1.1,0,0,0-1.062.853l-.085.373a.706.706,0,0,1-.689.559Z" transform="translate(-1048 -6243)" stroke="rgba(0,0,0,0)" stroke-miterlimit="10" stroke-width="1"/>
  </g>
</svg>
