<svg xmlns="http://www.w3.org/2000/svg" width="16" height="16" viewBox="0 0 16 16">
  <g id="delete_black" transform="translate(0)">
    <g id="trash-2">
      <rect id="Rectangle_189" data-name="Rectangle 189" width="16" height="16" transform="translate(0)"/>
      <path id="Path_291" data-name="Path 291" d="M14.864,4.708H11.479V3.577A1.638,1.638,0,0,0,9.786,2H7.755A1.638,1.638,0,0,0,6.062,3.577V4.708H2.677a.677.677,0,1,0,0,1.354h.677V13.51a2.031,2.031,0,0,0,2.031,2.031h6.771a2.031,2.031,0,0,0,2.031-2.031V6.062h.677a.677.677,0,1,0,0-1.354ZM7.417,3.577c0-.108.142-.223.339-.223H9.786c.2,0,.339.115.339.223V4.708H7.417Zm5.417,9.933a.677.677,0,0,1-.677.677H5.385a.677.677,0,0,1-.677-.677V6.062h8.125Z" transform="translate(-0.646 -0.645)" fill="#fff"/>
      <path id="Path_292" data-name="Path 292" d="M8.677,15.062a.677.677,0,0,0,.677-.677V11.677a.677.677,0,1,0-1.354,0v2.708A.677.677,0,0,0,8.677,15.062Z" transform="translate(-2.583 -3.552)" fill="#fff"/>
      <path id="Path_293" data-name="Path 293" d="M14.677,15.062a.677.677,0,0,0,.677-.677V11.677a.677.677,0,1,0-1.354,0v2.708A.677.677,0,0,0,14.677,15.062Z" transform="translate(-4.521 -3.552)" fill="#fff"/>
    </g>
  </g>
</svg>
