<svg xmlns="http://www.w3.org/2000/svg" width="21.003" height="21" viewBox="0 0 21.003 21">
  <g id="edit" transform="translate(0.502 0.5)">
    <g id="Edit_Square" data-name="Edit Square" transform="translate(-0.001 0)">
      <path id="Subtraction_23" data-name="Subtraction 23" d="M1091,6263c-.11,0-.221,0-.331-.01h-9.33c-.109.007-.221.01-.331.01a4.815,4.815,0,0,1-4.992-5.335v-9.331A4.811,4.811,0,0,1,1081,6243c.112,0,.224,0,.335.01h9.33c.11-.007.223-.01.334-.01a5.326,5.326,0,0,1,3.6,1.4,5.41,5.41,0,0,1,1.393,3.937v9.331A4.817,4.817,0,0,1,1091,6263Zm-5.13-13.2a.206.206,0,0,0-.147.059l-4.645,4.654a1.752,1.752,0,0,0-.516,1.209l-.058,2.312a.46.46,0,0,0,.126.332.466.466,0,0,0,.332.137h2.289a1.8,1.8,0,0,0,1.256-.517l6.553-6.584a1.55,1.55,0,0,0,0-2.175l-1.265-1.269a1.538,1.538,0,0,0-2.182,0l-.652.664a.258.258,0,0,0,0,.36l.056.056c.98.978,1.507,1.506,1.524,1.529a.661.661,0,0,1,.176.448.644.644,0,0,1-.643.645.617.617,0,0,1-.429-.176l-1.628-1.622A.2.2,0,0,0,1085.865,6249.8Z" transform="translate(-1076 -6243)" stroke="rgba(0,0,0,0)" stroke-miterlimit="10" stroke-width="1"/>
    </g>
  </g>
</svg>
