<svg xmlns="http://www.w3.org/2000/svg" width="12" height="12" viewBox="0 0 12 12">
  <g id="food_icon" transform="translate(-12846 -4016)">
    <g id="svgg" transform="translate(12847.57 3976.645)">
      <path id="path0" d="M4.353,41.386a.772.772,0,0,0-.582.758l-.007.2.077-.013a5.253,5.253,0,0,1,1.455,0l.077.013-.007-.2a.8.8,0,0,0-1.013-.758m-.145,1.483a4.993,4.993,0,0,0-1.161.241A4.723,4.723,0,0,0-.023,46.5a6.312,6.312,0,0,0-.112.739,43.2,43.2,0,0,0,4.706.039H9.276l-.013-.135a4.719,4.719,0,0,0-3.994-4.238,8.2,8.2,0,0,0-1.061-.039M-.395,47.9c-.436.219,0,1.249.635,1.487.278.1.081.1,4.393.095l4.008-.005.162-.055a1.3,1.3,0,0,0,.889-1.2c0-.178-.043-.265-.161-.324s-9.818-.054-9.926,0" transform="translate(0 0)" fill="#fff" fill-rule="evenodd"/>
    </g>
    <rect id="Rectangle_2013" data-name="Rectangle 2013" width="12" height="12" transform="translate(12846 4016)" fill="none"/>
  </g>
</svg>
