<svg xmlns="http://www.w3.org/2000/svg" width="570" height="511.675" viewBox="0 0 570 511.675">
  <g id="mail_sent" transform="translate(0 0)">
    <path id="Path_762" data-name="Path 762" d="M880,389.837a1,1,0,0,1-.571-.179L602.87,197.055a5.015,5.015,0,0,0-5.729.01L322.574,389.656a1,1,0,1,1-1.149-1.638L595.992,195.426a7.022,7.022,0,0,1,8.02-.013l276.559,192.6a1,1,0,0,1-.572,1.821Z" transform="translate(-315 -194.163)" fill="#464646"/>
    <path id="Path_763" data-name="Path 763" d="M23.264,202.5,285.276,8.319l264,208-250.5,148.5-136-31Z" fill="#464646"/>
    <path id="Path_764" data-name="Path 764" d="M489.256,650.7H359.815a6.047,6.047,0,1,1,0-12.095H489.256a6.047,6.047,0,0,1,0,12.095Z" transform="translate(-315 -194.163)" fill="#FF6F67"/>
    <path id="Path_765" data-name="Path 765" d="M406.256,624.7H359.815a6.047,6.047,0,0,1,0-12.095h46.44a6.047,6.047,0,1,1,0,12.095Z" transform="translate(-315 -194.163)" fill="#FF6F67"/>
    <path id="Path_766" data-name="Path 766" d="M603.96,504.822a7.563,7.563,0,0,1-2.869-.562L439.5,437.211V227.337a7.008,7.008,0,0,1,7-7h310a7.008,7.008,0,0,1,7,7v210.02l-.3.13-156.28,66.74A7.617,7.617,0,0,1,603.96,504.822Z" transform="translate(-315 -194.337)" fill="#252626"/>
    <path id="Path_767" data-name="Path 767" d="M603.96,505.322a8.072,8.072,0,0,1-3.06-.6L439,437.545V227.337a7.508,7.508,0,0,1,7.5-7.5h310a7.508,7.508,0,0,1,7.5,7.5V437.688l-156.888,67a8.109,8.109,0,0,1-3.152.635ZM441,436.21l160.663,66.665a6.118,6.118,0,0,0,4.668-.028L762,436.368V227.337a5.507,5.507,0,0,0-5.5-5.5h-310a5.507,5.507,0,0,0-5.5,5.5Z" transform="translate(-315 -194.163)" fill="#252626"/>
    <path id="Path_768" data-name="Path 768" d="M878,387.837h-.2L763,436.857l-157.07,67.07a5.066,5.066,0,0,1-3.88.02L440,436.717l-117.62-48.8-.18-.08H322a7.008,7.008,0,0,0-7,7v304a7.008,7.008,0,0,0,7,7H878a7.008,7.008,0,0,0,7-7v-304A7.008,7.008,0,0,0,878,387.837Zm5,311a5,5,0,0,1-5,5H322a5,5,0,0,1-5-5v-304a5.011,5.011,0,0,1,4.81-5L440,438.877,601.28,505.8a7.121,7.121,0,0,0,5.44-.03L763,439.027l115.2-49.19a5.016,5.016,0,0,1,4.8,5Z" transform="translate(-315 -194.163)" fill="#464646"/>
    <path id="Path_769" data-name="Path 769" d="M586.718,410.3a22.724,22.724,0,0,1-13.673-4.542l-.245-.184-51.492-39.424a22.877,22.877,0,1,1,27.827-36.318L582.489,355.4l78.818-102.79a22.876,22.876,0,0,1,32.074-4.234l-.49.665.5-.656a22.9,22.9,0,0,1,4.234,32.074L604.919,401.369a22.886,22.886,0,0,1-18.2,8.928Z" transform="translate(-320.845 -158.656)" fill="#FF6F67"/>
  </g>
</svg>
