<svg xmlns="http://www.w3.org/2000/svg" width="21" height="21.001" viewBox="0 0 21 21.001">
  <g id="option" transform="translate(0.5 0.5)">
    <path id="Subtraction_25" data-name="Subtraction 25" d="M1034.34,6263h-8.67c-3.391,0-5.67-2.375-5.67-5.912v-8.168c0-3.542,2.278-5.921,5.67-5.921h8.67c3.385,0,5.66,2.379,5.66,5.921v8.168C1040,6260.625,1037.725,6263,1034.34,6263Zm.14-11.2a1.2,1.2,0,1,0,1.2,1.2A1.2,1.2,0,0,0,1034.48,6251.8Zm-4.48,0a1.2,1.2,0,1,0,1.2,1.2A1.2,1.2,0,0,0,1030,6251.8Zm-4.48,0a1.2,1.2,0,1,0,1.2,1.2A1.2,1.2,0,0,0,1025.52,6251.8Z" transform="translate(-1020 -6243)" stroke="rgba(0,0,0,0)" stroke-miterlimit="10" stroke-width="1"/>
  </g>
</svg>
