<svg xmlns="http://www.w3.org/2000/svg" width="22.507" height="18.212" viewBox="0 0 22.507 18.212">
  <g id="scooter_dark_active" transform="translate(-1.225 -3.822)">
    <path id="path0" d="M32.154,90.91l-2.954.006v4.722l1.23-.008a8.084,8.084,0,0,0,1.393-.05,10.783,10.783,0,0,1,1.73-.042h1.568V93.215c0-1.278,0-2.321-.006-2.317s-1.336.009-2.96.013M44.72,94.626a.182.182,0,0,0,.026.079.678.678,0,0,1,.018.2.471.471,0,0,0,.025.2.489.489,0,0,1,.025.2c0,.107.011.186.025.186s.025.079.025.186a.489.489,0,0,0,.025.2.489.489,0,0,1,.025.2c0,.107.011.186.025.186s.025.083.025.2.01.2.025.2.025.079.025.186a.489.489,0,0,0,.025.2.489.489,0,0,1,.025.2c0,.107.011.186.025.186a6.62,6.62,0,0,1,0,1.149c-.014,0-.025.051-.025.112s-.011.112-.025.112-.025.045-.025.1-.011.1-.025.1-.025.034-.025.075-.011.075-.025.075-.025.034-.025.075-.011.075-.025.075-.025.017-.025.037a.4.4,0,0,1-.05.126.4.4,0,0,0-.05.124.05.05,0,0,1-.019.043,1.115,1.115,0,0,0-.117.2,1.027,1.027,0,0,1-.118.2.046.046,0,0,0-.021.041.415.415,0,0,1-.1.135.665.665,0,0,0-.1.118,4.078,4.078,0,0,1-.445.435.426.426,0,0,0-.108.081,1,1,0,0,1-.29.218.029.029,0,0,0-.031.025c0,.014-.022.025-.05.025s-.05.011-.05.025-.017.025-.039.025a.181.181,0,0,0-.092.05.184.184,0,0,1-.1.05c-.025,0-.045.011-.045.025s-.028.025-.062.025-.062.011-.062.025-.022.025-.048.025a.083.083,0,0,0-.064.025.029.029,0,0,1-.04.01c-.013-.008-.049,0-.08.021a.174.174,0,0,1-.1.029c-.024,0-.044,0-.044.016s-.045.023-.1.023-.1.011-.1.025-.056.025-.125.025-.125.011-.125.025a10.716,10.716,0,0,1-1.173.025,11.577,11.577,0,0,1-1.188-.025.1.1,0,0,0-.076-.025c-.034,0-.061-.013-.061-.029s-.007-.022-.015-.014c-.059.059-.61-.436-.61-.549a.029.029,0,0,0-.025-.032c-.014,0-.025-.022-.025-.05s-.008-.05-.019-.05-.081-.121-.081-.167a.03.03,0,0,0-.025-.032c-.014,0-.025-.027-.025-.061a.1.1,0,0,0-.025-.076.156.156,0,0,1-.025-.1c0-.047-.011-.086-.025-.086a.852.852,0,0,1-.025-.311,1.107,1.107,0,0,1,.025-.326.084.084,0,0,0,.025-.064.521.521,0,0,1,.081-.248c.01,0,.019-.023.019-.05a.347.347,0,0,1,.075-.175.551.551,0,0,0,.046-.072l.081-.144a.368.368,0,0,0,.048-.134c0-.027.011-.049.025-.049s.025-.027.025-.061a.105.105,0,0,1,.022-.075c.037-.023.058-.185.07-.551a1.222,1.222,0,0,0-.075-.618l-.029-.069H35.427c-2.471,0-3.679-.008-3.679-.025s-.042,0-.094.037-.13.081-.175.1-.081.049-.081.059-.027.031-.061.046a1.036,1.036,0,0,0-.281.224.562.562,0,0,1-.131.106,2.946,2.946,0,0,0-.4.388.33.33,0,0,1-.075.087.267.267,0,0,0-.075.1.039.039,0,0,1-.019.034,1.243,1.243,0,0,0-.131.158,1.243,1.243,0,0,1-.131.158c-.01,0-.019.03-.019.056s-.012.048-.026.048-.02.01-.012.023.006.027,0,.031a.53.53,0,0,0-.079.127.321.321,0,0,1-.081.119c-.012,0-.021.022-.021.05s-.011.05-.025.05-.025.022-.025.05-.011.05-.025.05-.025.028-.025.062-.011.062-.025.062-.025.022-.025.05-.011.05-.025.05-.025.034-.025.075-.011.075-.025.075-.025.027-.025.061a.1.1,0,0,1-.025.076.128.128,0,0,0-.025.089c0,.04-.011.073-.025.073s-.025.034-.025.075-.011.075-.025.075-.025.051-.025.112-.011.112-.025.112-.025.061-.025.136a.3.3,0,0,1-.025.151,9.969,9.969,0,0,0,0,1.411c.013,0,.038-.025.054-.056a3.944,3.944,0,0,1,.247-.343c.007-.007.049-.06.094-.118a6.178,6.178,0,0,1,1.529-1.306c.014,0,.026-.008.026-.019s.025-.031.056-.047l.27-.137c.118-.06.258-.127.312-.15a5.667,5.667,0,0,1,.988-.324l.247-.051a4.119,4.119,0,0,1,1.686,0l.25.061a3.653,3.653,0,0,1,1.215.626.15.15,0,0,0,.056.046,3.967,3.967,0,0,1,.769.847.516.516,0,0,0,.046.077,1.98,1.98,0,0,1,.165.3c.062.131.082.176.132.306l.047.119a4.649,4.649,0,0,1,.155.6,4.049,4.049,0,0,1,.029.518l0,.381h2.858a23.147,23.147,0,0,0,2.859-.037c0-.021.011-.037.025-.037s.025-.023.025-.05a.246.246,0,0,1,.022-.094c.012-.024.033-.072.047-.106a4.077,4.077,0,0,1,1.335-1.718c.038-.023.07-.05.07-.061s.017-.02.037-.02.037-.011.037-.025.016-.025.035-.025a.051.051,0,0,0,.044-.019,3.966,3.966,0,0,1,.745-.379,4.229,4.229,0,0,1,2.21-.141c.151.035.289.064.306.064.039,0,.045-.289.007-.312a.43.43,0,0,1-.025-.187.43.43,0,0,0-.025-.187.335.335,0,0,1-.025-.162.335.335,0,0,0-.025-.162.292.292,0,0,1-.025-.15.292.292,0,0,0-.025-.15.257.257,0,0,1-.025-.139c0-.068-.011-.123-.025-.123s-.025-.056-.025-.125-.011-.125-.025-.125-.025-.056-.025-.125-.011-.125-.025-.125-.025-.05-.025-.111a.22.22,0,0,0-.025-.126.152.152,0,0,1-.025-.1.152.152,0,0,0-.025-.1.152.152,0,0,1-.025-.1.152.152,0,0,0-.025-.1.152.152,0,0,1-.025-.1.152.152,0,0,0-.025-.1.156.156,0,0,1-.025-.1c0-.047-.011-.086-.025-.086s-.025-.039-.025-.086a.156.156,0,0,0-.025-.1.128.128,0,0,1-.025-.089c0-.04-.011-.073-.025-.073s-.025-.039-.025-.087-.01-.087-.022-.087-.03-.062-.039-.137a.363.363,0,0,0-.04-.151.13.13,0,0,1-.023-.088c0-.04-.011-.073-.025-.073s-.025-.028-.025-.061a.425.425,0,0,0-.028-.131l-.053-.132c-.014-.034-.035-.082-.047-.106a.246.246,0,0,1-.022-.094c0-.028-.011-.05-.025-.05s-.025-.034-.025-.075-.009-.075-.02-.075-.036-.056-.054-.125-.043-.125-.054-.125-.02-.027-.02-.061a.1.1,0,0,0-.025-.076.083.083,0,0,1-.025-.064c0-.027-.011-.048-.025-.048s-.025-.017-.025-.038a.242.242,0,0,0-.025-.087l-.05-.1a.242.242,0,0,1-.025-.087c0-.021-.008-.038-.019-.038-.025,0-.081-.124-.081-.18,0-.025-.011-.045-.025-.045s-.025-.018-.025-.039c0-.09-.073-.115-.469-.163l-1.017-.125c-.11-.014-.269-.035-.353-.048-.261-.041-.312-.034-.3.038" transform="translate(-27.376 -85.221)" fill="#FF6F67" fill-rule="evenodd"/>
    <path id="path1" d="M56.292,61.22c-.084.084,0,.833.1.833a.874.874,0,0,1,.308.325,5.054,5.054,0,0,1,.076,1.469l0,1.107-.061.061a.218.218,0,0,1-.088.061.556.556,0,0,0-.2.2.025.025,0,0,1-.025.026c-.014,0-.025.017-.025.037s-.011.037-.025.037-.025.027-.025.06-.012.064-.027.069a.764.764,0,0,0-.027.3,1.028,1.028,0,0,0,.027.323.109.109,0,0,1,.027.067.182.182,0,0,0,.05.094.186.186,0,0,1,.05.08.485.485,0,0,0,.212.2c.021,0,.038.01.038.023s.039.038.087.055.087.041.087.052a1.358,1.358,0,0,0,.326.02c.311,0,.326,0,.311-.048s0-.058.08-.093a.868.868,0,0,0,.128-1.435.282.282,0,0,1-.1-.078c0-.01-.022-.019-.05-.019-.053,0-.072-.084-.025-.112.016-.01.025-.475.025-1.313s-.009-1.3-.025-1.3-.025-.033-.025-.073a.128.128,0,0,0-.025-.089.083.083,0,0,1-.025-.064c0-.027-.011-.048-.025-.048S57.4,62.03,57.4,62s-.011-.05-.025-.05-.025-.02-.025-.044a.12.12,0,0,0-.05-.08.116.116,0,0,1-.05-.064A.84.84,0,0,0,57,61.5a.211.211,0,0,1-.089-.061.356.356,0,0,0-.111-.077c-.028-.009-.051-.027-.051-.039s-.022-.023-.05-.023-.05-.011-.05-.025-.027-.025-.061-.025a.1.1,0,0,1-.076-.025.31.31,0,0,0-.221-.008M43.264,76.814a.579.579,0,0,0,0,.353c.01.034.032.113.048.175a1.369,1.369,0,0,0,.1.281.218.218,0,0,1,.022.081c0,.021.011.038.025.038s.025.022.025.05.011.05.025.05.025.022.025.05.011.05.025.05a.03.03,0,0,1,.025.033.182.182,0,0,0,.05.086.187.187,0,0,1,.05.08.308.308,0,0,0,.075.1.33.33,0,0,1,.075.1,2.9,2.9,0,0,0,.491.47.15.15,0,0,1,.056.044.468.468,0,0,0,.109.079c.038.019.069.045.069.056s.022.021.05.021.05.011.05.025.022.025.05.025.05.011.05.025.022.025.05.025.05.011.05.025.022.025.05.025.05.009.05.02.057.036.126.055a.436.436,0,0,1,.139.054.132.132,0,0,0,.084.02.125.125,0,0,1,.087.025.3.3,0,0,0,.151.025c.075,0,.136.011.136.025a3.412,3.412,0,0,0,.824,0c0-.014.056-.025.125-.025s.125-.011.125-.025.045-.025.1-.025.1-.011.1-.025.034-.025.075-.025.075-.011.075-.025.028-.025.062-.025.062-.011.062-.025.022-.025.05-.025.05-.011.05-.025.022-.025.05-.025.05-.011.05-.025.022-.025.05-.025.05-.011.05-.025a.03.03,0,0,1,.033-.025.182.182,0,0,0,.086-.05.185.185,0,0,1,.082-.05.255.255,0,0,0,.1-.075.259.259,0,0,1,.1-.075.026.026,0,0,0,.027-.025.026.026,0,0,1,.026-.025,1.123,1.123,0,0,0,.315-.309,1.072,1.072,0,0,1,.114-.144.133.133,0,0,0,.044-.076.116.116,0,0,1,.05-.071.12.12,0,0,0,.05-.08c0-.024.011-.044.025-.044s.025-.022.025-.05.011-.05.025-.05.025-.022.025-.05.011-.05.025-.05.025-.022.025-.05.011-.05.025-.05.025-.022.025-.05.011-.05.025-.05.025-.028.025-.062.011-.062.025-.062.025-.045.025-.1.011-.1.025-.1.025-.044.025-.1a.186.186,0,0,1,.025-.114.216.216,0,0,0,.025-.125V76.82L48.85,76.8c-.058-.008-.325-.012-.593-.008l-.487.007-.045.15a1.848,1.848,0,0,1-.221.487c-.01,0-.025.021-.033.046a1.784,1.784,0,0,1-.767.611,1.707,1.707,0,0,1-1.443-.105.351.351,0,0,0-.09-.052A1.56,1.56,0,0,1,44.8,77.6a1.811,1.811,0,0,1-.346-.671l-.037-.125-.559-.006a4.5,4.5,0,0,0-.592.015m14.317-.005c-.038.015-.044.308-.006.308.014,0,.025.045.025.1s.011.1.025.1.025.033.025.073a.128.128,0,0,0,.025.089.1.1,0,0,1,.025.076c0,.034.009.061.021.061s.021.015.021.034a1.11,1.11,0,0,0,.163.341c.011,0,.021.022.021.05s.01.05.023.05.031.023.039.051a.356.356,0,0,0,.077.111.232.232,0,0,1,.061.082,1.887,1.887,0,0,0,.452.431.259.259,0,0,1,.1.075.259.259,0,0,0,.1.075.026.026,0,0,1,.027.025c0,.014.017.025.037.025s.037.011.037.025.017.025.037.025.037.011.037.025.022.025.05.025.05.011.05.025.022.025.05.025.05.011.05.025.022.025.05.025.05.011.05.025.034.025.075.025.075.011.075.025.027.025.061.025a.1.1,0,0,1,.076.025.125.125,0,0,0,.087.025.125.125,0,0,1,.087.025.253.253,0,0,0,.137.025.253.253,0,0,1,.137.025,1.658,1.658,0,0,0,.414.025,1.343,1.343,0,0,0,.4-.025c0-.014.061-.025.136-.025a.3.3,0,0,0,.151-.025.152.152,0,0,1,.1-.025.152.152,0,0,0,.1-.025.083.083,0,0,1,.064-.025c.027,0,.048-.011.048-.025s.034-.025.075-.025.075-.011.075-.025.022-.025.05-.025.05-.011.05-.025.022-.025.05-.025.05-.008.05-.019.037-.035.081-.054a.416.416,0,0,0,.122-.081.131.131,0,0,1,.069-.046.3.3,0,0,0,.107-.075.341.341,0,0,1,.1-.075,1.887,1.887,0,0,0,.421-.4.221.221,0,0,1,.057-.077.913.913,0,0,0,.119-.17,1.007,1.007,0,0,1,.093-.145.136.136,0,0,0,.031-.081c0-.026.011-.048.025-.048s.025-.022.025-.05.011-.05.025-.05.025-.028.025-.062.011-.062.025-.062.025-.034.025-.075.011-.075.025-.075.025-.034.025-.075.011-.075.025-.075.025-.045.025-.1.011-.1.025-.1c.044,0,.031-.292-.015-.31-.022-.008-.284-.015-.583-.015h-.544l-.029.064a.337.337,0,0,0-.029.113.263.263,0,0,1-.025.1l-.05.1a.242.242,0,0,0-.025.087c0,.021-.008.038-.019.038a.277.277,0,0,0-.069.106,1.736,1.736,0,0,1-1.924.747A1.852,1.852,0,0,1,59,77.461c-.016-.038-.036-.07-.045-.07s-.031-.037-.049-.081-.055-.129-.081-.187a.576.576,0,0,1-.047-.14.494.494,0,0,0-.027-.113l-.027-.079-.553,0c-.3,0-.567.008-.585.015" transform="translate(-40.537 -57.381)" fill="#1b1c1c" fill-rule="evenodd"/>
    <path id="path3" d="M20.216,72.187v.587h5.9v-.531c0-.292.007-.556.015-.587l.015-.056H20.216v.587m18.36,1.871a.468.468,0,0,1-.113.021.524.524,0,0,0-.125.025.719.719,0,0,1-.147.03c-.069.009-.153.023-.187.032a.927.927,0,0,1-.112.02.388.388,0,0,0-.088.019.8.8,0,0,1-.137.027c-.055.007-.156.025-.225.041s-.17.034-.225.042a.373.373,0,0,0-.126.034.4.4,0,0,1-.145.027.288.288,0,0,0-.132.026.239.239,0,0,1-.122.02.216.216,0,0,0-.125.025.22.22,0,0,1-.126.025c-.061,0-.111.009-.111.021s-.014.021-.031.021a1.407,1.407,0,0,0-.266.043.5.5,0,0,1-.125.018.245.245,0,0,0-.118.026.2.2,0,0,1-.109.02.183.183,0,0,0-.112.025.134.134,0,0,1-.092.025c-.059,0-.073.009-.061.04a.254.254,0,0,1,.015.05c0,.006.016.01.035.01a1.224,1.224,0,0,1,.377.391c.023.053.052.116.065.14a1,1,0,0,1-.428,1.056c-.162.052,0,.1.312.09a2.6,2.6,0,0,1,.4.02c.083.014.269.038.413.053s.324.037.4.049.271.036.433.053a1.256,1.256,0,0,1,.326.061.838.838,0,0,0,.377.075,1.477,1.477,0,0,1,.242.04.277.277,0,0,0,.128.014.3.3,0,0,1,.127.007c.1.023.1.024.054-.112a8.041,8.041,0,0,1-.037-1.341c0-1.291-.006-1.377-.078-1.31M26.1,77.47c-.015.015-.66.027-1.685.031-1.875.008-1.746-.006-1.966.211-.1.1-.171.2-.157.228a.243.243,0,0,1-.037.069c-.022.034-.034.072-.027.084s0,.027-.017.032c-.075.025-.018.569.065.625.015.01.018.019.007.019-.078,0,.253.335.4.4.1.046,7.5.083,7.548.037a.108.108,0,0,1,.059-.014c.025,0,.046-.009.046-.021s.051-.047.112-.079a.356.356,0,0,0,.112-.074.2.2,0,0,1,.044-.066.953.953,0,0,0,.131-.21l.05-.1a1.305,1.305,0,0,0,.025-.311.846.846,0,0,0-.025-.277.083.083,0,0,1-.025-.064c0-.027-.011-.048-.025-.048s-.025-.016-.025-.036c0-.083-.314-.351-.478-.409l-.159-.056H28.1c-1.236,0-1.984.009-2,.024m-1.385,4.013a5.78,5.78,0,0,0-3.2,1.382,6.11,6.11,0,0,0-.625.627c-.062.075-.124.149-.137.164s-.093.124-.175.242a.964.964,0,0,1-.179.217c-.025,0-.067.047-.151.165a1.547,1.547,0,0,0-.156.32.106.106,0,0,1-.039.066.067.067,0,0,0-.025.067c.007.019,0,.028-.011.019s-.025.013-.025.049-.011.064-.025.064-.025.022-.025.048a.083.083,0,0,1-.025.064.083.083,0,0,0-.025.064c0,.027-.011.048-.025.048s-.025.034-.025.076-.01.07-.025.061-.025.016-.025.061-.011.076-.025.076-.025.033-.025.073a.128.128,0,0,1-.025.089.125.125,0,0,0-.025.087.125.125,0,0,1-.025.087c-.156.1.095.762.287.762.021,0,.038.011.038.025s.022.025.048.025a.083.083,0,0,1,.064.025,4.283,4.283,0,0,0,.993-.005c.015-.046,5.691-.046,5.709,0a8.425,8.425,0,0,0,1.394,0,.083.083,0,0,1,.063-.023c.027,0,.048-.011.048-.025s.017-.025.038-.025c.09,0,.311-.309.311-.435a.136.136,0,0,1,.023-.079,4.587,4.587,0,0,0-.174-2.122,3.627,3.627,0,0,0-2.235-2.173,4.353,4.353,0,0,0-1.561-.173m13.2,1.159a4.108,4.108,0,0,0-1.374.381l-.18.1a3.952,3.952,0,0,0-1.609,1.714,3.666,3.666,0,0,0-.173.407.518.518,0,0,1-.065.127.139.139,0,0,0-.033.069.027.027,0,0,1-.025.029c-.014,0-.025.045-.025.1s-.011.1-.025.1a1.222,1.222,0,0,0,.006.517.574.574,0,0,0,.2.245.356.356,0,0,0,.19.087c.028,0,.05.011.05.025a.682.682,0,0,0,.275.025c.2,0,.275-.008.275-.031s.586-.031,2.848-.031,2.848.006,2.848.031.072.031.275.031a.682.682,0,0,0,.275-.025c0-.014.028-.025.062-.025s.062-.011.062-.025.022-.025.05-.025.05-.009.05-.019.024-.03.053-.044.051-.034.048-.045.015-.04.04-.063a.481.481,0,0,0,.077-.1,1.228,1.228,0,0,0,.006-.518.186.186,0,0,1-.025-.114c0-.054-.011-.1-.025-.1s-.025-.034-.025-.075-.011-.075-.025-.075-.025-.028-.025-.063a.281.281,0,0,0-.022-.106c-.012-.024-.033-.072-.047-.106s-.046-.107-.07-.162a.9.9,0,0,1-.051-.133.2.2,0,0,0-.04-.075.594.594,0,0,1-.064-.1.949.949,0,0,0-.1-.175.419.419,0,0,1-.037-.052,1.738,1.738,0,0,0-.216-.3c-.03-.028-.046-.052-.036-.052s-.015-.033-.058-.072a.4.4,0,0,1-.078-.086A.459.459,0,0,0,41,83.691a.33.33,0,0,1-.092-.082,1.107,1.107,0,0,0-.161-.142.926.926,0,0,1-.128-.105.132.132,0,0,0-.069-.045c-.016,0-.028-.009-.028-.021s-.031-.037-.069-.056a.57.57,0,0,1-.081-.048,1.562,1.562,0,0,0-.256-.144c-.052-.023-.094-.051-.094-.062s-.015-.019-.033-.019a1.411,1.411,0,0,1-.3-.126.2.2,0,0,0-.081-.024c-.021,0-.038-.013-.038-.028s-.035-.024-.105-.014a.754.754,0,0,1-.244-.022,4.258,4.258,0,0,0-1.313-.11m-14.6.3c.2.2.131.413-.2.612-.115.068-.279.178-.364.243-.381.292-.61.292-.723,0-.083-.215.028-.368.485-.671.5-.332.628-.361.805-.184" transform="translate(-18.392 -67.128)" fill="#252626" fill-rule="evenodd"/>
    <path id="path4" d="M52.265,91.381c0,.014-.022.025-.05.025s-.05.011-.05.025a.026.026,0,0,1-.027.025c-.051,0-.2.193-.2.26,0,.022-.008.04-.019.04-.04,0-.008,2.625.033,2.773.072.256.185.368.377.373a.146.146,0,0,1,.1.027.125.125,0,0,0,.15,0,.156.156,0,0,1,.1-.025c.047,0,.086-.011.086-.025s.02-.025.045-.025c.082,0,.279-.253.279-.358a.109.109,0,0,1,.025-.079c.016-.01.025-.467.025-1.288a12.594,12.594,0,0,0-.025-1.273c-.014,0-.025-.034-.025-.075s-.011-.075-.025-.075-.025-.018-.025-.041a.152.152,0,0,0-.054-.087c-.03-.026-.046-.047-.036-.047s-.015-.028-.056-.062a.263.263,0,0,0-.113-.062.069.069,0,0,1-.054-.025.666.666,0,0,0-.239-.025c-.132,0-.223.01-.223.025M36.114,100.72c-.81.451-1.055.818-.7,1.047.167.108.282.077.595-.163.085-.065.249-.175.364-.243.242-.144.3-.223.3-.393,0-.275-.286-.4-.562-.248" transform="translate(-31.655 -84.936)" fill="#FF6F67" fill-rule="evenodd"/>
  </g>
</svg>
