<svg xmlns="http://www.w3.org/2000/svg" width="22.508" height="18.212" viewBox="0 0 22.508 18.212">
  <path id="scooter" d="M-5205.779,12585.187a.25.25,0,0,0-.136-.025c-.066,0-.129-.009-.139-.025s-.047-.025-.085-.025-.079-.009-.088-.024a.114.114,0,0,0-.076-.025c-.035,0-.06-.01-.06-.022s-.035-.025-.076-.025-.076-.013-.076-.025-.022-.025-.05-.025-.051-.012-.051-.024-.022-.025-.047-.025-.05-.013-.05-.025-.022-.025-.051-.025-.05-.01-.05-.025-.016-.022-.038-.022-.038-.012-.038-.024a.032.032,0,0,0-.035-.029c-.022,0-.038-.009-.038-.021a.026.026,0,0,0-.029-.025.258.258,0,0,1-.1-.076.252.252,0,0,0-.1-.075,1.9,1.9,0,0,1-.452-.43.206.206,0,0,0-.06-.082.326.326,0,0,1-.076-.11c-.009-.029-.028-.051-.041-.051s-.022-.022-.022-.051-.01-.051-.022-.051a1.141,1.141,0,0,1-.161-.341c0-.019-.01-.035-.022-.035s-.019-.024-.019-.06a.107.107,0,0,0-.025-.076.13.13,0,0,1-.025-.088c0-.041-.013-.073-.025-.073s-.025-.047-.025-.1-.009-.1-.025-.1c-.038,0-.032-.29.006-.306.019-.007.281-.016.584-.016h.556l.025.075a.484.484,0,0,1,.028.114.582.582,0,0,0,.047.139c.025.06.063.142.082.189s.038.079.047.079.028.031.044.069a1.85,1.85,0,0,0,.916.686,1.738,1.738,0,0,0,1.924-.746c.028-.06.057-.106.069-.106s.016-.02.016-.038a.269.269,0,0,1,.025-.089c.016-.028.038-.072.051-.1a.239.239,0,0,0,.025-.1.336.336,0,0,1,.029-.11l.028-.062h.546c.3,0,.559.006.581.012.047.02.06.31.016.31-.016,0-.025.048-.025.1s-.013.1-.025.1-.025.032-.025.073-.013.075-.025.075-.025.035-.025.076-.01.072-.025.072-.025.029-.025.063-.009.063-.022.063-.028.021-.028.051-.01.05-.022.05-.025.022-.025.048a.158.158,0,0,1-.032.082.642.642,0,0,0-.092.146,1.212,1.212,0,0,1-.12.17.18.18,0,0,0-.057.076,1.891,1.891,0,0,1-.423.4.4.4,0,0,0-.1.075.323.323,0,0,1-.107.076.124.124,0,0,0-.069.044.4.4,0,0,1-.12.082c-.044.02-.082.045-.082.054s-.022.02-.051.02-.047.013-.047.025-.025.024-.05.024-.051.013-.051.025-.035.025-.076.025-.076.01-.076.025-.022.022-.047.022a.085.085,0,0,0-.063.025c-.009.016-.054.024-.1.024a.163.163,0,0,0-.1.025c-.006.017-.076.025-.151.025s-.133.013-.133.025a1.356,1.356,0,0,1-.4.025A1.626,1.626,0,0,1-5205.779,12585.187Zm-14.3,0c0-.013-.06-.025-.136-.025s-.143-.009-.152-.025a.123.123,0,0,0-.085-.025.141.141,0,0,1-.085-.019.466.466,0,0,0-.139-.054c-.069-.019-.126-.044-.126-.057s-.022-.02-.05-.02-.051-.012-.051-.024-.022-.025-.05-.025-.047-.013-.047-.025-.025-.025-.051-.025-.05-.01-.05-.025-.022-.022-.051-.022-.05-.012-.05-.021-.028-.038-.066-.057a.436.436,0,0,1-.11-.079.138.138,0,0,0-.057-.045,2.914,2.914,0,0,1-.489-.47.317.317,0,0,0-.076-.1.314.314,0,0,1-.076-.107.206.206,0,0,0-.047-.079.163.163,0,0,1-.05-.085c0-.019-.013-.034-.025-.034s-.025-.022-.025-.051-.013-.048-.025-.048-.025-.025-.025-.05-.01-.051-.025-.051-.025-.016-.025-.038a.229.229,0,0,0-.022-.082,1.5,1.5,0,0,1-.1-.278c-.016-.062-.038-.142-.047-.177a.591.591,0,0,1,0-.354,5.012,5.012,0,0,1,.594-.016l.559.009.038.124a1.827,1.827,0,0,0,.344.669,1.51,1.51,0,0,0,.373.342.374.374,0,0,1,.091.054,1.713,1.713,0,0,0,1.44.1,1.765,1.765,0,0,0,.768-.609c.009-.025.022-.047.035-.047a1.965,1.965,0,0,0,.221-.487l.044-.148.487-.009c.268,0,.534,0,.594.009l.1.013v.111c0,.06-.009.116-.025.126s-.022.06-.022.113-.013.1-.025.1-.025.044-.025.1-.013.1-.025.1-.025.029-.025.063-.013.063-.025.063-.025.021-.025.051-.01.047-.025.047-.025.022-.025.051-.009.051-.025.051-.022.021-.022.05-.013.048-.025.048-.025.025-.025.051-.013.05-.025.05-.025.02-.025.045a.126.126,0,0,1-.05.082.106.106,0,0,0-.051.069.119.119,0,0,1-.044.075,1.281,1.281,0,0,0-.113.146,1.115,1.115,0,0,1-.316.31.025.025,0,0,0-.025.022.026.026,0,0,1-.028.025.308.308,0,0,0-.1.075.258.258,0,0,1-.1.076.211.211,0,0,0-.082.047.172.172,0,0,1-.085.054c-.019,0-.032.01-.032.022s-.025.025-.05.025-.051.013-.051.025-.022.025-.05.025-.051.013-.051.025-.022.024-.047.024-.05.013-.05.025-.029.025-.063.025-.063.01-.063.025-.035.022-.076.022-.073.013-.073.025-.047.024-.1.024-.1.013-.1.025-.054.025-.123.025-.126.013-.126.025a1.42,1.42,0,0,1-.411.025A1.434,1.434,0,0,1-5220.08,12585.187Zm3.269-2.6c-.019-.047-5.695-.047-5.711,0a4.316,4.316,0,0,1-.992,0,.089.089,0,0,0-.063-.025c-.028,0-.051-.009-.051-.024s-.016-.025-.038-.025c-.193,0-.442-.664-.288-.762.016-.006.025-.047.025-.085a.135.135,0,0,1,.025-.089c.016-.009.025-.05.025-.088s.013-.073.025-.073.025-.034.025-.078.009-.07.025-.061.025-.016.025-.06.01-.079.025-.079.025-.02.025-.048a.075.075,0,0,1,.025-.062.09.09,0,0,0,.022-.063c0-.028.013-.051.025-.051s.025-.028.025-.063.013-.057.025-.047.019,0,.013-.019a.059.059,0,0,1,.025-.066.128.128,0,0,0,.038-.07,1.593,1.593,0,0,1,.155-.318c.085-.12.126-.164.152-.164a.95.95,0,0,0,.18-.219c.082-.119.161-.227.177-.243s.076-.088.136-.161a5.858,5.858,0,0,1,.625-.628,5.769,5.769,0,0,1,3.2-1.381,4.283,4.283,0,0,1,1.563.171,3.641,3.641,0,0,1,2.233,2.173,4.576,4.576,0,0,1,.174,2.123.13.13,0,0,0-.022.079c0,.126-.221.433-.313.433-.019,0-.038.013-.038.025s-.022.024-.047.024a.079.079,0,0,0-.063.025,3.986,3.986,0,0,1-.658.027A4.633,4.633,0,0,1-5216.811,12582.584Zm-4.537-2.521a.337.337,0,0,1-.119-.053.521.521,0,0,1-.065-.05A.239.239,0,0,0-5221.348,12580.063Zm.475-.217c-.031.024-.061.046-.088.065.03-.02.06-.042.092-.065l.055-.041Zm-.745-.138a.853.853,0,0,1,.333-.411C-5221.512,12579.463-5221.61,12579.583-5221.618,12579.708Zm1.414-.5a.39.39,0,0,1-.019.129.252.252,0,0,0,0-.237A.35.35,0,0,1-5220.2,12579.211Zm-.172-.282a.286.286,0,0,0-.307,0,.463.463,0,0,1,.153-.027A.358.358,0,0,1-5220.375,12578.929Zm17.859,3.652c0-.025-.587-.032-2.849-.032s-2.849.007-2.849.032-.069.031-.275.031a.677.677,0,0,1-.275-.025c0-.013-.022-.025-.05-.025a.376.376,0,0,1-.189-.085.6.6,0,0,1-.2-.246,1.226,1.226,0,0,1-.006-.515c.013,0,.025-.048.025-.1s.009-.1.025-.1a.028.028,0,0,0,.025-.028.133.133,0,0,1,.032-.07.544.544,0,0,0,.066-.126,3.542,3.542,0,0,1,.173-.407,3.981,3.981,0,0,1,1.608-1.715c.073-.038.155-.079.18-.095a4.124,4.124,0,0,1,1.374-.38,4.11,4.11,0,0,1,1.314.111.743.743,0,0,0,.243.019c.07-.01.1,0,.1.016s.019.028.038.028a.214.214,0,0,1,.082.022,1.333,1.333,0,0,0,.3.126c.019,0,.035.01.035.02a.235.235,0,0,0,.092.063,1.433,1.433,0,0,1,.255.143c.01.006.044.028.083.047s.069.048.069.058.013.021.028.021a.128.128,0,0,1,.07.045,1.087,1.087,0,0,0,.126.107.966.966,0,0,1,.161.142.382.382,0,0,0,.092.082.478.478,0,0,1,.148.14.4.4,0,0,0,.076.088c.044.038.069.072.057.072s.006.022.038.051a1.686,1.686,0,0,1,.215.294.362.362,0,0,0,.038.054.943.943,0,0,1,.1.174.558.558,0,0,0,.066.1.2.2,0,0,1,.038.075,1.262,1.262,0,0,0,.051.133c.025.057.057.13.073.164a1.085,1.085,0,0,0,.047.1.364.364,0,0,1,.022.107c0,.035.009.063.025.063s.022.031.022.072.013.076.025.076.025.044.025.1a.212.212,0,0,0,.025.117,1.19,1.19,0,0,1-.006.518.536.536,0,0,1-.076.1c-.025.022-.044.051-.041.061s-.019.031-.047.047-.054.032-.054.044-.022.017-.05.017-.051.013-.051.025-.028.024-.06.024-.063.013-.063.025-.107.025-.275.025C-5202.443,12582.612-5202.516,12582.6-5202.516,12582.581Zm-12.337-1.141,0-.382a3.7,3.7,0,0,0-.029-.519,4.453,4.453,0,0,0-.155-.6c-.012-.035-.035-.089-.047-.117-.05-.133-.069-.177-.129-.306a1.738,1.738,0,0,0-.167-.3.812.812,0,0,1-.044-.079,4,4,0,0,0-.771-.846.137.137,0,0,1-.057-.045,3.647,3.647,0,0,0-1.213-.628c-.057-.013-.167-.038-.25-.061a4.152,4.152,0,0,0-1.687,0c-.063.012-.174.037-.25.054a5.619,5.619,0,0,0-.985.321c-.054.025-.2.092-.313.152s-.24.12-.271.136-.054.038-.054.047-.013.02-.028.02a6.222,6.222,0,0,0-1.529,1.3,1.059,1.059,0,0,1-.095.12,3.737,3.737,0,0,0-.243.345c-.019.031-.041.054-.057.054a9.985,9.985,0,0,1,0-1.409.316.316,0,0,0,.025-.151c0-.076.009-.136.022-.136s.025-.051.025-.113.013-.111.025-.111.025-.034.025-.075.013-.076.025-.076.025-.034.025-.072a.132.132,0,0,1,.025-.089.11.11,0,0,0,.025-.075c0-.035.01-.063.025-.063s.025-.031.025-.076.009-.072.025-.072.025-.022.025-.051.01-.051.022-.051.025-.028.025-.062.013-.063.025-.063.025-.022.025-.047.013-.051.025-.051.025-.022.025-.051.01-.051.022-.051a.348.348,0,0,0,.079-.116.708.708,0,0,1,.079-.13c.013,0,.013-.019.006-.031s0-.022.013-.022.025-.019.025-.048a.083.083,0,0,1,.019-.057,1.2,1.2,0,0,0,.133-.157,1.3,1.3,0,0,1,.129-.158.037.037,0,0,0,.019-.032.283.283,0,0,1,.076-.1.3.3,0,0,0,.073-.085,2.927,2.927,0,0,1,.4-.389.59.59,0,0,0,.129-.107,1.157,1.157,0,0,1,.281-.225c.035-.012.06-.034.06-.044a.2.2,0,0,1,.082-.06c.044-.022.123-.069.174-.1s.095-.05.095-.038,1.207.025,3.68.025h3.676l.032.069a1.245,1.245,0,0,1,.076.619c-.013.367-.035.528-.073.55a.122.122,0,0,0-.022.076c0,.031-.009.06-.025.06s-.022.022-.022.051a.4.4,0,0,1-.047.133c-.028.047-.063.11-.082.146a.673.673,0,0,1-.047.069.38.38,0,0,0-.076.177c0,.028-.006.051-.016.051-.025,0-.082.177-.082.246a.093.093,0,0,1-.025.066,1.054,1.054,0,0,0-.025.325.832.832,0,0,0,.025.31c.013,0,.025.038.025.088s.009.092.025.1.025.041.025.076.01.06.025.06.022.016.022.031c0,.048.06.168.083.168s.019.021.019.051.013.05.025.05a.031.031,0,0,1,.025.032c0,.113.549.609.609.549.01-.009.016,0,.016.017s.025.028.06.028a.092.092,0,0,1,.076.025,11.84,11.84,0,0,0,1.188.024,11.094,11.094,0,0,0,1.175-.024c0-.017.054-.025.124-.025s.126-.013.126-.025.044-.025.1-.025.1-.01.1-.022.019-.021.044-.016a.161.161,0,0,0,.1-.031c.032-.02.066-.028.079-.02a.03.03,0,0,0,.041-.013.093.093,0,0,1,.063-.024c.028,0,.051-.01.051-.025s.028-.022.06-.022.063-.013.063-.025.022-.025.047-.025a.228.228,0,0,0,.1-.05.165.165,0,0,1,.092-.051c.022,0,.038-.01.038-.025s.022-.025.05-.025.051-.01.051-.025.013-.021.031-.025a.954.954,0,0,0,.291-.218.38.38,0,0,1,.107-.079,4.078,4.078,0,0,0,.445-.436.657.657,0,0,1,.1-.117.421.421,0,0,0,.1-.136c0-.019.009-.038.019-.041a.958.958,0,0,0,.12-.2,1.049,1.049,0,0,1,.117-.2.058.058,0,0,0,.019-.044.383.383,0,0,1,.05-.123.462.462,0,0,0,.051-.123c0-.022.009-.038.022-.038s.025-.035.025-.076.013-.075.025-.075.025-.032.025-.073.013-.076.025-.076.025-.044.025-.1.013-.1.025-.1.025-.051.025-.114.01-.113.025-.113a2.683,2.683,0,0,0,.025-.572,2.687,2.687,0,0,0-.025-.574c-.016,0-.025-.079-.025-.187a.537.537,0,0,0-.025-.2.507.507,0,0,1-.025-.2c0-.107-.01-.187-.025-.187s-.025-.082-.025-.2-.009-.2-.025-.2-.025-.079-.025-.187a.464.464,0,0,0-.025-.2.526.526,0,0,1-.022-.2c0-.1-.013-.184-.025-.184s-.025-.079-.025-.187a.525.525,0,0,0-.025-.2.427.427,0,0,1-.025-.2.662.662,0,0,0-.019-.2.232.232,0,0,1-.025-.079c-.009-.072.044-.079.3-.037.085.012.243.034.354.047.3.038.584.072,1.017.123.395.051.467.076.467.164,0,.022.013.041.025.041s.025.02.025.045c0,.054.057.18.083.18.009,0,.019.016.019.038a.2.2,0,0,0,.025.085c.013.028.035.073.047.1a.2.2,0,0,1,.025.088c0,.02.013.035.025.035s.025.021.025.051a.088.088,0,0,0,.025.063.115.115,0,0,1,.025.076c0,.034.009.063.022.063a.273.273,0,0,1,.054.123c.019.069.041.126.054.126s.019.031.019.072.013.076.025.076.025.022.025.051a.245.245,0,0,0,.022.095.773.773,0,0,1,.047.1c.016.034.038.095.054.132a.427.427,0,0,1,.028.133c0,.032.009.061.025.061s.025.034.025.072.01.082.022.089a.368.368,0,0,1,.041.151c.009.076.025.136.038.136s.022.041.022.089.013.088.025.088.025.031.025.072.013.083.025.089a.164.164,0,0,1,.025.1c0,.047.009.085.025.085s.025.041.025.088.01.092.025.1a.168.168,0,0,1,.022.1.16.16,0,0,0,.025.1c.016.009.025.054.025.1a.154.154,0,0,0,.025.1c.016.01.025.054.025.1a.16.16,0,0,0,.025.1.22.22,0,0,1,.025.127c0,.06.009.11.025.11s.025.057.025.123.01.126.025.126.025.058.025.124.009.126.022.126.025.057.025.123a.269.269,0,0,0,.025.139.267.267,0,0,1,.025.148.312.312,0,0,0,.025.152.347.347,0,0,1,.025.161.366.366,0,0,0,.025.164.444.444,0,0,1,.025.187.381.381,0,0,0,.025.186c.038.025.032.313-.006.313-.019,0-.155-.028-.306-.063a4.234,4.234,0,0,0-2.211.143,4.275,4.275,0,0,0-.746.375.051.051,0,0,1-.044.022c-.019,0-.035.01-.035.022s-.016.025-.038.025-.038.009-.038.021-.032.038-.069.061a4.061,4.061,0,0,0-1.336,1.718.829.829,0,0,1-.048.1.327.327,0,0,0-.022.095c0,.028-.009.051-.022.051s-.025.016-.025.037a23.269,23.269,0,0,1-2.858.038Zm-6.083-6.222c-.146-.066-.477-.4-.4-.4.009,0,.006-.007-.01-.019-.082-.054-.139-.6-.063-.623a.025.025,0,0,0,.016-.034c-.009-.01,0-.048.025-.082a.284.284,0,0,0,.038-.069c-.013-.029.054-.127.158-.231.218-.214.088-.2,1.964-.208,1.027-.006,1.671-.019,1.687-.031s.761-.025,2-.025h1.977l.158.057c.164.057.477.325.477.407,0,.02.013.035.025.035s.025.021.025.051a.088.088,0,0,0,.025.063.8.8,0,0,1,.025.275,1.227,1.227,0,0,1-.025.313c-.013.028-.035.072-.051.1a1,1,0,0,1-.129.209.163.163,0,0,0-.044.066.352.352,0,0,1-.114.072.314.314,0,0,0-.11.079c0,.013-.022.022-.047.022a.123.123,0,0,0-.06.013c-.014.015-.8.021-1.867.021C-5217.47,12575.278-5220.868,12575.25-5220.936,12575.219Zm-2.467-3.983v-2.362l2.956-.006c1.624,0,2.957-.01,2.959-.013s.006,1.039.006,2.318v2.321l-1.566,0a11.069,11.069,0,0,0-1.731.041,8.045,8.045,0,0,1-1.393.051l-1.231.01Zm18.951,1.937c-.009-.016-.054-.025-.095-.028a.361.361,0,0,1-.349-.28c0,.026-.024.021-.084,0a.367.367,0,0,0-.126-.006.3.3,0,0,1-.129-.013,1.322,1.322,0,0,0-.24-.041c-.23-.019-.344-.041-.379-.076a1.249,1.249,0,0,0-.325-.06c-.165-.02-.357-.041-.433-.054l-.4-.048c-.146-.016-.332-.037-.414-.054a2.9,2.9,0,0,0-.4-.019c-.316.006-.477-.038-.313-.092a1,1,0,0,0,.426-1.055c-.012-.025-.041-.089-.063-.139a1.22,1.22,0,0,0-.379-.392c-.019,0-.035-.007-.035-.01a.364.364,0,0,0-.013-.051c-.013-.031,0-.041.06-.041.041,0,.082-.01.091-.025a.2.2,0,0,1,.114-.021c.051,0,.1-.01.107-.022a.259.259,0,0,1,.12-.025.48.48,0,0,0,.123-.019,1.273,1.273,0,0,1,.266-.045c.019,0,.031-.009.031-.019s.051-.022.111-.022a.223.223,0,0,0,.126-.025.248.248,0,0,1,.126-.024.247.247,0,0,0,.12-.02.307.307,0,0,1,.133-.028.444.444,0,0,0,.145-.025.321.321,0,0,1,.126-.034c.054-.007.155-.028.224-.041a2.277,2.277,0,0,1,.224-.041.648.648,0,0,0,.139-.029.568.568,0,0,1,.088-.019,1.006,1.006,0,0,0,.111-.019c.035-.01.12-.022.186-.032a.8.8,0,0,0,.148-.031.6.6,0,0,1,.126-.025.37.37,0,0,0,.11-.022c.039-.035.059-.026.069.182a1.423,1.423,0,0,1,.017-.289c.009,0,.016-.016.016-.041,0-.066.148-.259.2-.259a.026.026,0,0,0,.028-.021c0-.017.022-.029.047-.029s.051-.009.051-.024a.537.537,0,0,1,.224-.022.742.742,0,0,1,.24.022c.006.016.031.024.054.024a.283.283,0,0,1,.11.063c.041.035.066.063.057.063s.006.021.035.047a.138.138,0,0,1,.053.086c0,.025.013.041.025.041s.025.034.025.075.013.076.025.076.025.439.025,1.272-.009,1.276-.025,1.289-.025.044-.025.076c0,.107-.2.359-.278.359-.025,0-.044.013-.044.025s-.041.025-.088.025-.092.01-.1.025a.106.106,0,0,1-.076.025A.1.1,0,0,1-5204.452,12573.172Zm-.478-.427c-.013-.1-.024-.432-.033-.83A4.7,4.7,0,0,0-5204.93,12572.745Zm-3.982-.243c0-.013-.041-.034-.088-.054s-.088-.041-.088-.054-.016-.025-.038-.025a.492.492,0,0,1-.212-.2.177.177,0,0,0-.047-.079.191.191,0,0,1-.05-.095.1.1,0,0,0-.029-.066,1.113,1.113,0,0,1-.025-.325.823.823,0,0,1,.025-.3c.016-.006.029-.038.029-.069s.009-.06.025-.06.025-.017.025-.038.01-.038.022-.038a.025.025,0,0,0,.025-.025.561.561,0,0,1,.2-.2.242.242,0,0,0,.088-.062l.06-.061,0-1.105a4.948,4.948,0,0,0-.076-1.469c-.038-.095-.252-.325-.306-.325-.095,0-.183-.748-.1-.834a.311.311,0,0,1,.221.01.114.114,0,0,0,.076.025c.035,0,.063.01.063.025s.022.021.047.021.05.013.05.025.022.032.051.041a.312.312,0,0,1,.114.076.217.217,0,0,0,.088.06.841.841,0,0,1,.246.26c0,.016.025.044.051.066a.109.109,0,0,1,.05.078c0,.025.013.045.025.045s.025.021.025.05.009.051.025.051.025.022.025.048a.082.082,0,0,0,.025.066c.013.006.022.047.022.088s.012.073.025.073a11.972,11.972,0,0,1,.025,1.3,12.691,12.691,0,0,1-.025,1.311c-.044.031-.028.113.025.113.028,0,.05.01.05.02a.3.3,0,0,0,.1.079.865.865,0,0,1-.126,1.434c-.076.035-.092.057-.079.095s0,.048-.312.048A1.44,1.44,0,0,1-5208.912,12572.5Zm-11.541-3.68h-2.95v-1.175h5.928l-.016.057c-.01.032-.016.3-.016.588v.53Z" transform="translate(5224.001 -12567)" />
</svg>
