<svg id="svg" xmlns="http://www.w3.org/2000/svg" xmlns:xlink="http://www.w3.org/1999/xlink" width="400" height="400" viewBox="0, 0, 400,400"><g id="svgg"><path id="path0" d="M175.000 1.185 C 11.863 21.386,-58.381 221.347,56.207 339.352 C 162.324 448.634,347.623 403.882,391.747 258.315 C 433.720 119.840,318.701 -16.609,175.000 1.185 M225.391 78.406 C 252.284 85.590,255.687 118.965,230.717 130.650 C 212.273 139.281,189.815 127.507,187.800 108.149 C 185.813 89.055,205.864 73.190,225.391 78.406 M201.953 161.881 C 218.885 165.446,227.001 176.198,226.886 194.913 C 226.808 207.509,226.885 207.135,217.560 240.234 C 203.222 291.126,203.967 299.397,222.995 300.584 C 228.852 300.949,237.408 299.545,243.068 297.288 C 244.401 296.757,242.353 307.981,240.849 309.449 C 239.478 310.786,214.058 319.745,208.720 320.772 C 184.110 325.507,162.560 316.080,157.832 298.511 C 155.133 288.485,156.930 277.012,166.529 242.969 C 177.972 202.388,179.176 191.963,173.185 185.343 C 169.622 181.406,156.651 180.682,146.637 183.862 C 143.330 184.912,140.631 185.545,140.638 185.269 C 140.698 183.047,143.871 173.062,144.680 172.553 C 146.508 171.401,164.691 164.881,170.576 163.266 C 181.912 160.156,191.707 159.724,201.953 161.881 " stroke="none" fill-rule="evenodd"></path></g></svg>